%TF.GenerationSoftware,KiCad,Pcbnew,8.0.5-8.0.5-0~ubuntu24.04.1*%
%TF.CreationDate,2024-10-13T20:58:15+02:00*%
%TF.ProjectId,PD_PSU,50445f50-5355-42e6-9b69-6361645f7063,rev?*%
%TF.SameCoordinates,Original*%
%TF.FileFunction,Soldermask,Top*%
%TF.FilePolarity,Negative*%
%FSLAX46Y46*%
G04 Gerber Fmt 4.6, Leading zero omitted, Abs format (unit mm)*
G04 Created by KiCad (PCBNEW 8.0.5-8.0.5-0~ubuntu24.04.1) date 2024-10-13 20:58:15*
%MOMM*%
%LPD*%
G01*
G04 APERTURE LIST*
G04 Aperture macros list*
%AMRoundRect*
0 Rectangle with rounded corners*
0 $1 Rounding radius*
0 $2 $3 $4 $5 $6 $7 $8 $9 X,Y pos of 4 corners*
0 Add a 4 corners polygon primitive as box body*
4,1,4,$2,$3,$4,$5,$6,$7,$8,$9,$2,$3,0*
0 Add four circle primitives for the rounded corners*
1,1,$1+$1,$2,$3*
1,1,$1+$1,$4,$5*
1,1,$1+$1,$6,$7*
1,1,$1+$1,$8,$9*
0 Add four rect primitives between the rounded corners*
20,1,$1+$1,$2,$3,$4,$5,0*
20,1,$1+$1,$4,$5,$6,$7,0*
20,1,$1+$1,$6,$7,$8,$9,0*
20,1,$1+$1,$8,$9,$2,$3,0*%
G04 Aperture macros list end*
%ADD10C,0.000000*%
%ADD11RoundRect,0.225000X0.250000X-0.225000X0.250000X0.225000X-0.250000X0.225000X-0.250000X-0.225000X0*%
%ADD12RoundRect,0.135000X0.185000X-0.135000X0.185000X0.135000X-0.185000X0.135000X-0.185000X-0.135000X0*%
%ADD13RoundRect,0.250000X-0.850000X-0.350000X0.850000X-0.350000X0.850000X0.350000X-0.850000X0.350000X0*%
%ADD14RoundRect,0.249997X-2.950003X-2.650003X2.950003X-2.650003X2.950003X2.650003X-2.950003X2.650003X0*%
%ADD15R,1.700000X3.700000*%
%ADD16RoundRect,0.250000X-1.000000X1.750000X-1.000000X-1.750000X1.000000X-1.750000X1.000000X1.750000X0*%
%ADD17RoundRect,0.135000X-0.185000X0.135000X-0.185000X-0.135000X0.185000X-0.135000X0.185000X0.135000X0*%
%ADD18RoundRect,0.150000X0.150000X-0.512500X0.150000X0.512500X-0.150000X0.512500X-0.150000X-0.512500X0*%
%ADD19RoundRect,0.250000X0.250000X0.475000X-0.250000X0.475000X-0.250000X-0.475000X0.250000X-0.475000X0*%
%ADD20R,1.600000X1.600000*%
%ADD21O,1.600000X1.600000*%
%ADD22RoundRect,0.135000X0.135000X0.185000X-0.135000X0.185000X-0.135000X-0.185000X0.135000X-0.185000X0*%
%ADD23RoundRect,0.147500X-0.147500X-0.172500X0.147500X-0.172500X0.147500X0.172500X-0.147500X0.172500X0*%
%ADD24R,0.700000X0.700000*%
%ADD25RoundRect,0.250000X0.475000X-0.250000X0.475000X0.250000X-0.475000X0.250000X-0.475000X-0.250000X0*%
%ADD26RoundRect,0.112500X-0.112500X0.187500X-0.112500X-0.187500X0.112500X-0.187500X0.112500X0.187500X0*%
%ADD27RoundRect,0.135000X-0.135000X-0.185000X0.135000X-0.185000X0.135000X0.185000X-0.135000X0.185000X0*%
%ADD28RoundRect,0.250000X-0.250000X-0.475000X0.250000X-0.475000X0.250000X0.475000X-0.250000X0.475000X0*%
%ADD29C,1.700000*%
%ADD30O,1.700000X1.700000*%
%ADD31RoundRect,0.112500X0.187500X0.112500X-0.187500X0.112500X-0.187500X-0.112500X0.187500X-0.112500X0*%
%ADD32R,5.000000X3.100000*%
%ADD33RoundRect,0.250000X1.425000X-0.362500X1.425000X0.362500X-1.425000X0.362500X-1.425000X-0.362500X0*%
%ADD34RoundRect,0.150000X-0.512500X-0.150000X0.512500X-0.150000X0.512500X0.150000X-0.512500X0.150000X0*%
%ADD35RoundRect,0.140000X0.170000X-0.140000X0.170000X0.140000X-0.170000X0.140000X-0.170000X-0.140000X0*%
%ADD36RoundRect,0.250000X0.850000X0.350000X-0.850000X0.350000X-0.850000X-0.350000X0.850000X-0.350000X0*%
%ADD37RoundRect,0.249997X2.950003X2.650003X-2.950003X2.650003X-2.950003X-2.650003X2.950003X-2.650003X0*%
%ADD38RoundRect,0.140000X-0.170000X0.140000X-0.170000X-0.140000X0.170000X-0.140000X0.170000X0.140000X0*%
%ADD39R,1.700000X0.650000*%
%ADD40RoundRect,0.250000X-1.750000X-1.000000X1.750000X-1.000000X1.750000X1.000000X-1.750000X1.000000X0*%
%ADD41RoundRect,0.140000X-0.140000X-0.170000X0.140000X-0.170000X0.140000X0.170000X-0.140000X0.170000X0*%
%ADD42C,6.400000*%
%ADD43R,3.100000X5.000000*%
%ADD44RoundRect,0.225000X-0.225000X-0.250000X0.225000X-0.250000X0.225000X0.250000X-0.225000X0.250000X0*%
%ADD45RoundRect,0.250000X-0.475000X0.250000X-0.475000X-0.250000X0.475000X-0.250000X0.475000X0.250000X0*%
%ADD46RoundRect,0.150000X0.637500X0.150000X-0.637500X0.150000X-0.637500X-0.150000X0.637500X-0.150000X0*%
%ADD47R,1.700000X1.700000*%
%ADD48RoundRect,0.250000X1.000000X-1.750000X1.000000X1.750000X-1.000000X1.750000X-1.000000X-1.750000X0*%
%ADD49C,2.500000*%
%ADD50R,3.000000X4.000000*%
%ADD51RoundRect,0.150000X-0.637500X-0.150000X0.637500X-0.150000X0.637500X0.150000X-0.637500X0.150000X0*%
%ADD52C,0.650000*%
%ADD53RoundRect,0.150000X-0.425000X0.150000X-0.425000X-0.150000X0.425000X-0.150000X0.425000X0.150000X0*%
%ADD54RoundRect,0.075000X-0.500000X0.075000X-0.500000X-0.075000X0.500000X-0.075000X0.500000X0.075000X0*%
%ADD55O,2.100000X1.000000*%
%ADD56O,1.800000X1.000000*%
%ADD57RoundRect,0.375000X-0.625000X-0.375000X0.625000X-0.375000X0.625000X0.375000X-0.625000X0.375000X0*%
G04 APERTURE END LIST*
D10*
G36*
X82464912Y-45768444D02*
G01*
X82493436Y-45771176D01*
X82521902Y-45774492D01*
X82550315Y-45778294D01*
X82607004Y-45786958D01*
X82663545Y-45796382D01*
X82665601Y-45796979D01*
X82667723Y-45797468D01*
X82669898Y-45797872D01*
X82672113Y-45798215D01*
X82681093Y-45799450D01*
X82683301Y-45799845D01*
X82685467Y-45800321D01*
X82687578Y-45800903D01*
X82689620Y-45801614D01*
X82690611Y-45802026D01*
X82691579Y-45802479D01*
X82692524Y-45802976D01*
X82693443Y-45803521D01*
X82694335Y-45804116D01*
X82695198Y-45804764D01*
X82696030Y-45805468D01*
X82696829Y-45806232D01*
X82696829Y-45806228D01*
X82696969Y-45806797D01*
X82697092Y-45807364D01*
X82697194Y-45807930D01*
X82697272Y-45808494D01*
X82697324Y-45809053D01*
X82697346Y-45809607D01*
X82697335Y-45810154D01*
X82697289Y-45810694D01*
X82697203Y-45811226D01*
X82697145Y-45811487D01*
X82697076Y-45811747D01*
X82696995Y-45812003D01*
X82696903Y-45812257D01*
X82696799Y-45812507D01*
X82696682Y-45812755D01*
X82696553Y-45812998D01*
X82696411Y-45813239D01*
X82696255Y-45813475D01*
X82696085Y-45813708D01*
X82695901Y-45813937D01*
X82695702Y-45814162D01*
X82695488Y-45814382D01*
X82695259Y-45814598D01*
X82689807Y-45818103D01*
X82684276Y-45821482D01*
X82678670Y-45824736D01*
X82672993Y-45827871D01*
X82661445Y-45833791D01*
X82649668Y-45839269D01*
X82637696Y-45844330D01*
X82625566Y-45848999D01*
X82613312Y-45853304D01*
X82600970Y-45857268D01*
X82583492Y-45861970D01*
X82565883Y-45866137D01*
X82548158Y-45869770D01*
X82530334Y-45872872D01*
X82512426Y-45875446D01*
X82494448Y-45877493D01*
X82476417Y-45879015D01*
X82458347Y-45880014D01*
X82440255Y-45880493D01*
X82422155Y-45880454D01*
X82404062Y-45879898D01*
X82385993Y-45878829D01*
X82367963Y-45877247D01*
X82349986Y-45875156D01*
X82332079Y-45872557D01*
X82314257Y-45869453D01*
X82305322Y-45867848D01*
X82296432Y-45866044D01*
X82287589Y-45864042D01*
X82278797Y-45861843D01*
X82270059Y-45859451D01*
X82261378Y-45856865D01*
X82252758Y-45854089D01*
X82244201Y-45851123D01*
X82235712Y-45847970D01*
X82227293Y-45844631D01*
X82218948Y-45841108D01*
X82210680Y-45837403D01*
X82202493Y-45833517D01*
X82194389Y-45829452D01*
X82186373Y-45825210D01*
X82178446Y-45820792D01*
X82177739Y-45820551D01*
X82177039Y-45820260D01*
X82176351Y-45819923D01*
X82175676Y-45819543D01*
X82175017Y-45819121D01*
X82174379Y-45818662D01*
X82173762Y-45818167D01*
X82173170Y-45817640D01*
X82172606Y-45817084D01*
X82172073Y-45816501D01*
X82171574Y-45815895D01*
X82171111Y-45815267D01*
X82170687Y-45814622D01*
X82170305Y-45813963D01*
X82169968Y-45813290D01*
X82169679Y-45812609D01*
X82169440Y-45811921D01*
X82169255Y-45811230D01*
X82169126Y-45810538D01*
X82169056Y-45809849D01*
X82169048Y-45809165D01*
X82169105Y-45808488D01*
X82169229Y-45807823D01*
X82169424Y-45807171D01*
X82169692Y-45806536D01*
X82170036Y-45805920D01*
X82170459Y-45805327D01*
X82170963Y-45804758D01*
X82171553Y-45804218D01*
X82172229Y-45803710D01*
X82172996Y-45803234D01*
X82173856Y-45802796D01*
X82188058Y-45799448D01*
X82202341Y-45796428D01*
X82216689Y-45793674D01*
X82231084Y-45791127D01*
X82288807Y-45781810D01*
X82325559Y-45776778D01*
X82362380Y-45772016D01*
X82380823Y-45769978D01*
X82399293Y-45768297D01*
X82417793Y-45767070D01*
X82436325Y-45766394D01*
X82464912Y-45768444D01*
G37*
G36*
X82488857Y-44668069D02*
G01*
X82537188Y-44673635D01*
X82561523Y-44677244D01*
X82585935Y-44681466D01*
X82610401Y-44686342D01*
X82634893Y-44691919D01*
X82659385Y-44698242D01*
X82683853Y-44705353D01*
X82708270Y-44713299D01*
X82732609Y-44722124D01*
X82756847Y-44731872D01*
X82780956Y-44742588D01*
X82804911Y-44754317D01*
X82828685Y-44767103D01*
X82845438Y-44776896D01*
X82861976Y-44787288D01*
X82878289Y-44798276D01*
X82894368Y-44809853D01*
X82910201Y-44822016D01*
X82925779Y-44834758D01*
X82941093Y-44848075D01*
X82956130Y-44861960D01*
X82970883Y-44876410D01*
X82985339Y-44891419D01*
X82999490Y-44906982D01*
X83013325Y-44923093D01*
X83026834Y-44939748D01*
X83040007Y-44956941D01*
X83052834Y-44974667D01*
X83065304Y-44992921D01*
X83120745Y-44983653D01*
X83176034Y-44977817D01*
X83231010Y-44975369D01*
X83285513Y-44976264D01*
X83339381Y-44980457D01*
X83392454Y-44987903D01*
X83444570Y-44998557D01*
X83495571Y-45012375D01*
X83545293Y-45029311D01*
X83593578Y-45049321D01*
X83640263Y-45072360D01*
X83685189Y-45098383D01*
X83728194Y-45127345D01*
X83769118Y-45159201D01*
X83807800Y-45193906D01*
X83844079Y-45231416D01*
X83875410Y-45268981D01*
X83903836Y-45308822D01*
X83929286Y-45350809D01*
X83951690Y-45394813D01*
X83970979Y-45440706D01*
X83987082Y-45488358D01*
X83999930Y-45537640D01*
X84009453Y-45588424D01*
X84015579Y-45640580D01*
X84018241Y-45693980D01*
X84017367Y-45748494D01*
X84012888Y-45803993D01*
X84004734Y-45860349D01*
X83992834Y-45917432D01*
X83977120Y-45975113D01*
X83957520Y-46033264D01*
X84099784Y-46056080D01*
X84237491Y-46081637D01*
X84304421Y-46095693D01*
X84369952Y-46110734D01*
X84433998Y-46126858D01*
X84496474Y-46144167D01*
X84557292Y-46162759D01*
X84616366Y-46182735D01*
X84673610Y-46204194D01*
X84728937Y-46227236D01*
X84782261Y-46251961D01*
X84833496Y-46278468D01*
X84882555Y-46306857D01*
X84929352Y-46337228D01*
X84956289Y-46356615D01*
X84982381Y-46377155D01*
X85007532Y-46398823D01*
X85031651Y-46421593D01*
X85054643Y-46445440D01*
X85076415Y-46470338D01*
X85096874Y-46496261D01*
X85115927Y-46523184D01*
X85133478Y-46551080D01*
X85149437Y-46579925D01*
X85163708Y-46609692D01*
X85176199Y-46640356D01*
X85186816Y-46671892D01*
X85195466Y-46704273D01*
X85202055Y-46737474D01*
X85206490Y-46771469D01*
X85208802Y-46805943D01*
X85209102Y-46840607D01*
X85207417Y-46875473D01*
X85203772Y-46910554D01*
X85198193Y-46945864D01*
X85190706Y-46981415D01*
X85181338Y-47017221D01*
X85170114Y-47053295D01*
X85157060Y-47089649D01*
X85142202Y-47126296D01*
X85125566Y-47163250D01*
X85107178Y-47200525D01*
X85087064Y-47238131D01*
X85065250Y-47276084D01*
X85041762Y-47314395D01*
X85016626Y-47353078D01*
X85015305Y-47355029D01*
X85013958Y-47356961D01*
X85012583Y-47358874D01*
X85011182Y-47360767D01*
X85009755Y-47362640D01*
X85008302Y-47364493D01*
X85006823Y-47366327D01*
X85005318Y-47368139D01*
X84963424Y-47416020D01*
X84920987Y-47460915D01*
X84878048Y-47502846D01*
X84834648Y-47541836D01*
X84790830Y-47577905D01*
X84746633Y-47611076D01*
X84702100Y-47641371D01*
X84657272Y-47668811D01*
X84612189Y-47693418D01*
X84566894Y-47715214D01*
X84521428Y-47734221D01*
X84475832Y-47750461D01*
X84430147Y-47763955D01*
X84384416Y-47774725D01*
X84338678Y-47782793D01*
X84292975Y-47788181D01*
X84247548Y-47790976D01*
X84202622Y-47791325D01*
X84158218Y-47789337D01*
X84114355Y-47785124D01*
X84071053Y-47778797D01*
X84028333Y-47770465D01*
X83986215Y-47760240D01*
X83944720Y-47748232D01*
X83903867Y-47734552D01*
X83863677Y-47719310D01*
X83824169Y-47702617D01*
X83785365Y-47684584D01*
X83747284Y-47665321D01*
X83709946Y-47644938D01*
X83673372Y-47623548D01*
X83637582Y-47601259D01*
X83621122Y-47590544D01*
X83604801Y-47579613D01*
X83588616Y-47568485D01*
X83572559Y-47557174D01*
X83556628Y-47545698D01*
X83540817Y-47534072D01*
X83509536Y-47510435D01*
X83524132Y-47577320D01*
X83535909Y-47642545D01*
X83544898Y-47706095D01*
X83551130Y-47767952D01*
X83554635Y-47828101D01*
X83555444Y-47886524D01*
X83553588Y-47943205D01*
X83549097Y-47998127D01*
X83542002Y-48051275D01*
X83532334Y-48102631D01*
X83520124Y-48152180D01*
X83505401Y-48199903D01*
X83488198Y-48245786D01*
X83468544Y-48289812D01*
X83446471Y-48331963D01*
X83422008Y-48372224D01*
X83399259Y-48404867D01*
X83374830Y-48435716D01*
X83348819Y-48464743D01*
X83321326Y-48491919D01*
X83292450Y-48517217D01*
X83262289Y-48540608D01*
X83230942Y-48562064D01*
X83198507Y-48581557D01*
X83165085Y-48599059D01*
X83130773Y-48614542D01*
X83095669Y-48627977D01*
X83059874Y-48639337D01*
X83023486Y-48648593D01*
X82986604Y-48655718D01*
X82949326Y-48660683D01*
X82911751Y-48663459D01*
X82881330Y-48664124D01*
X82850852Y-48663431D01*
X82820342Y-48661399D01*
X82789824Y-48658047D01*
X82759322Y-48653391D01*
X82728860Y-48647451D01*
X82698462Y-48640244D01*
X82668151Y-48631789D01*
X82637953Y-48622102D01*
X82607891Y-48611204D01*
X82577988Y-48599111D01*
X82548270Y-48585842D01*
X82518759Y-48571415D01*
X82489481Y-48555848D01*
X82460459Y-48539159D01*
X82431717Y-48521366D01*
X82402996Y-48539155D01*
X82373996Y-48555842D01*
X82344741Y-48571408D01*
X82315255Y-48585834D01*
X82285562Y-48599103D01*
X82255686Y-48611196D01*
X82225651Y-48622095D01*
X82195482Y-48631782D01*
X82165201Y-48640239D01*
X82134833Y-48647448D01*
X82104402Y-48653389D01*
X82073932Y-48658046D01*
X82043447Y-48661399D01*
X82012971Y-48663432D01*
X81982527Y-48664124D01*
X81952140Y-48663459D01*
X81914607Y-48660678D01*
X81877372Y-48655704D01*
X81840534Y-48648565D01*
X81804193Y-48639290D01*
X81768448Y-48627909D01*
X81733397Y-48614449D01*
X81699140Y-48598940D01*
X81665775Y-48581411D01*
X81633403Y-48561889D01*
X81602122Y-48540403D01*
X81572031Y-48516983D01*
X81543229Y-48491658D01*
X81515816Y-48464454D01*
X81489890Y-48435403D01*
X81465550Y-48404531D01*
X81442897Y-48371869D01*
X81418563Y-48331613D01*
X81396614Y-48289473D01*
X81377083Y-48245465D01*
X81359998Y-48199606D01*
X81345390Y-48151912D01*
X81333289Y-48102398D01*
X81323725Y-48051083D01*
X81316730Y-47997980D01*
X81312333Y-47943107D01*
X81310563Y-47886480D01*
X81310574Y-47885813D01*
X81652996Y-47885813D01*
X81653779Y-47918990D01*
X81655709Y-47950723D01*
X81662790Y-48009846D01*
X81673800Y-48063162D01*
X81680641Y-48087637D01*
X81688300Y-48110654D01*
X81696723Y-48132210D01*
X81705853Y-48152303D01*
X81715636Y-48170931D01*
X81726018Y-48188091D01*
X81737476Y-48204806D01*
X81749381Y-48220345D01*
X81761741Y-48234729D01*
X81774564Y-48247980D01*
X81787856Y-48260119D01*
X81801626Y-48271165D01*
X81815879Y-48281142D01*
X81830624Y-48290069D01*
X81845867Y-48297967D01*
X81861617Y-48304859D01*
X81877880Y-48310763D01*
X81894663Y-48315703D01*
X81911975Y-48319698D01*
X81929822Y-48322770D01*
X81948211Y-48324940D01*
X81967150Y-48326229D01*
X81986663Y-48326553D01*
X82006740Y-48325796D01*
X82027339Y-48323929D01*
X82048418Y-48320925D01*
X82069936Y-48316754D01*
X82091850Y-48311387D01*
X82114119Y-48304797D01*
X82136699Y-48296954D01*
X82159550Y-48287831D01*
X82182630Y-48277398D01*
X82205896Y-48265628D01*
X82229306Y-48252491D01*
X82252819Y-48237959D01*
X82276392Y-48222003D01*
X82299983Y-48204595D01*
X82323551Y-48185707D01*
X82329315Y-48183035D01*
X82335169Y-48180586D01*
X82341107Y-48178359D01*
X82347122Y-48176358D01*
X82353208Y-48174584D01*
X82359359Y-48173040D01*
X82365568Y-48171727D01*
X82371828Y-48170647D01*
X82375336Y-48168829D01*
X82378881Y-48167095D01*
X82382464Y-48165446D01*
X82386081Y-48163882D01*
X82389732Y-48162404D01*
X82393415Y-48161012D01*
X82397129Y-48159707D01*
X82400871Y-48158488D01*
X82404641Y-48157357D01*
X82408436Y-48156315D01*
X82412256Y-48155361D01*
X82416099Y-48154496D01*
X82419963Y-48153720D01*
X82423847Y-48153034D01*
X82427748Y-48152439D01*
X82431667Y-48151935D01*
X82435589Y-48152438D01*
X82439494Y-48153032D01*
X82443381Y-48153717D01*
X82447248Y-48154492D01*
X82451094Y-48155356D01*
X82454917Y-48156310D01*
X82458716Y-48157353D01*
X82462489Y-48158483D01*
X82466235Y-48159702D01*
X82469951Y-48161007D01*
X82473637Y-48162400D01*
X82477291Y-48163878D01*
X82480912Y-48165443D01*
X82484497Y-48167092D01*
X82488046Y-48168827D01*
X82491556Y-48170645D01*
X82497817Y-48171725D01*
X82504025Y-48173039D01*
X82510176Y-48174584D01*
X82516262Y-48176358D01*
X82522278Y-48178359D01*
X82528215Y-48180586D01*
X82534070Y-48183036D01*
X82539834Y-48185708D01*
X82563391Y-48204587D01*
X82586979Y-48221989D01*
X82610554Y-48237940D01*
X82634074Y-48252470D01*
X82657498Y-48265606D01*
X82680783Y-48277378D01*
X82703889Y-48287812D01*
X82726771Y-48296938D01*
X82749390Y-48304784D01*
X82771702Y-48311377D01*
X82793666Y-48316747D01*
X82815239Y-48320921D01*
X82836381Y-48323928D01*
X82857048Y-48325796D01*
X82877198Y-48326554D01*
X82896791Y-48326229D01*
X82915815Y-48324936D01*
X82934292Y-48322758D01*
X82952230Y-48319675D01*
X82969635Y-48315665D01*
X82986513Y-48310707D01*
X83002872Y-48304783D01*
X83010858Y-48301451D01*
X83018717Y-48297870D01*
X83026450Y-48294036D01*
X83034057Y-48289948D01*
X83041538Y-48285603D01*
X83048896Y-48280997D01*
X83056131Y-48276129D01*
X83063243Y-48270996D01*
X83070233Y-48265595D01*
X83077103Y-48259924D01*
X83083853Y-48253981D01*
X83090483Y-48247762D01*
X83096996Y-48241264D01*
X83103391Y-48234487D01*
X83115832Y-48220080D01*
X83127814Y-48204520D01*
X83139343Y-48187787D01*
X83147656Y-48174339D01*
X83155620Y-48159986D01*
X83163206Y-48144729D01*
X83170388Y-48128568D01*
X83177136Y-48111504D01*
X83183422Y-48093537D01*
X83189220Y-48074668D01*
X83194499Y-48054898D01*
X83199234Y-48034227D01*
X83203395Y-48012655D01*
X83206955Y-47990184D01*
X83209885Y-47966813D01*
X83212157Y-47942544D01*
X83213745Y-47917377D01*
X83214619Y-47891312D01*
X83214751Y-47864350D01*
X83213397Y-47821313D01*
X83210037Y-47776115D01*
X83204585Y-47728767D01*
X83196955Y-47679279D01*
X83187060Y-47627662D01*
X83174816Y-47573926D01*
X83160137Y-47518082D01*
X83142935Y-47460141D01*
X83123127Y-47400114D01*
X83100625Y-47338010D01*
X83075344Y-47273841D01*
X83047197Y-47207617D01*
X83016100Y-47139349D01*
X82981967Y-47069047D01*
X82944710Y-46996723D01*
X82904245Y-46922386D01*
X82849875Y-46935047D01*
X82794561Y-46946847D01*
X82738149Y-46957544D01*
X82680482Y-46966895D01*
X82621405Y-46974656D01*
X82560761Y-46980586D01*
X82498395Y-46984440D01*
X82434150Y-46985978D01*
X82433389Y-46985874D01*
X82432630Y-46985978D01*
X82400268Y-46985514D01*
X82368397Y-46984441D01*
X82306043Y-46980584D01*
X82245413Y-46974653D01*
X82186350Y-46966890D01*
X82128697Y-46957539D01*
X82072299Y-46946842D01*
X82016997Y-46935043D01*
X81962637Y-46922386D01*
X81928965Y-46983979D01*
X81897538Y-47044172D01*
X81868299Y-47102964D01*
X81841194Y-47160353D01*
X81816168Y-47216335D01*
X81793167Y-47270910D01*
X81772135Y-47324074D01*
X81753018Y-47375825D01*
X81735761Y-47426161D01*
X81720309Y-47475080D01*
X81706607Y-47522579D01*
X81694600Y-47568656D01*
X81684234Y-47613309D01*
X81675453Y-47656536D01*
X81668203Y-47698334D01*
X81662430Y-47738701D01*
X81658077Y-47777634D01*
X81655090Y-47815132D01*
X81653415Y-47851193D01*
X81652996Y-47885813D01*
X81310574Y-47885813D01*
X81311453Y-47828115D01*
X81315031Y-47768029D01*
X81321329Y-47706237D01*
X81330376Y-47642756D01*
X81342203Y-47577602D01*
X81356840Y-47510790D01*
X81325686Y-47534329D01*
X81309945Y-47545910D01*
X81294087Y-47557342D01*
X81278105Y-47568610D01*
X81261992Y-47579696D01*
X81245743Y-47590585D01*
X81229351Y-47601259D01*
X81193561Y-47623548D01*
X81156987Y-47644938D01*
X81119649Y-47665321D01*
X81081568Y-47684584D01*
X81042764Y-47702617D01*
X81003256Y-47719310D01*
X80963066Y-47734552D01*
X80922213Y-47748232D01*
X80880718Y-47760240D01*
X80838600Y-47770465D01*
X80795880Y-47778797D01*
X80752579Y-47785124D01*
X80708716Y-47789337D01*
X80664311Y-47791325D01*
X80619385Y-47790976D01*
X80573958Y-47788181D01*
X80528256Y-47782793D01*
X80482518Y-47774725D01*
X80436786Y-47763954D01*
X80391101Y-47750460D01*
X80345505Y-47734221D01*
X80300039Y-47715214D01*
X80254744Y-47693417D01*
X80209662Y-47668810D01*
X80164833Y-47641370D01*
X80120300Y-47611075D01*
X80076104Y-47577904D01*
X80032285Y-47541835D01*
X79988885Y-47502846D01*
X79945946Y-47460914D01*
X79903509Y-47416019D01*
X79861615Y-47368139D01*
X79860110Y-47366326D01*
X79858631Y-47364493D01*
X79857178Y-47362640D01*
X79855751Y-47360766D01*
X79854350Y-47358873D01*
X79852975Y-47356960D01*
X79851627Y-47355029D01*
X79850307Y-47353078D01*
X79825171Y-47314395D01*
X79801683Y-47276084D01*
X79779869Y-47238131D01*
X79759755Y-47200524D01*
X79741367Y-47163250D01*
X79724731Y-47126296D01*
X79709873Y-47089648D01*
X79696819Y-47053294D01*
X79685595Y-47017221D01*
X79676226Y-46981415D01*
X79668740Y-46945864D01*
X79663161Y-46910554D01*
X79659516Y-46875473D01*
X79657830Y-46840607D01*
X79658027Y-46817939D01*
X79995529Y-46817939D01*
X79995540Y-46832959D01*
X79996507Y-46849040D01*
X79998495Y-46866187D01*
X80001568Y-46884406D01*
X80005794Y-46903701D01*
X80011238Y-46924078D01*
X80017965Y-46945542D01*
X80026041Y-46968097D01*
X80035532Y-46991749D01*
X80046504Y-47016502D01*
X80059022Y-47042363D01*
X80073152Y-47069336D01*
X80088960Y-47097426D01*
X80106511Y-47126638D01*
X80125872Y-47156977D01*
X80159107Y-47194659D01*
X80191827Y-47229252D01*
X80224048Y-47260869D01*
X80255783Y-47289622D01*
X80287045Y-47315623D01*
X80317850Y-47338982D01*
X80348212Y-47359814D01*
X80378143Y-47378228D01*
X80407660Y-47394338D01*
X80436775Y-47408255D01*
X80465502Y-47420090D01*
X80493857Y-47429956D01*
X80521853Y-47437965D01*
X80549503Y-47444228D01*
X80576823Y-47448857D01*
X80603827Y-47451965D01*
X80631041Y-47453623D01*
X80658347Y-47453795D01*
X80685740Y-47452510D01*
X80713214Y-47449799D01*
X80740763Y-47445692D01*
X80768381Y-47440221D01*
X80796063Y-47433416D01*
X80823802Y-47425307D01*
X80851593Y-47415925D01*
X80879430Y-47405301D01*
X80907307Y-47393464D01*
X80935219Y-47380447D01*
X80963159Y-47366278D01*
X80991122Y-47350990D01*
X81019103Y-47334611D01*
X81047094Y-47317174D01*
X81088705Y-47289391D01*
X81129362Y-47260143D01*
X81169076Y-47229586D01*
X81207858Y-47197874D01*
X81245720Y-47165166D01*
X81282673Y-47131615D01*
X81318728Y-47097378D01*
X81353896Y-47062611D01*
X81421617Y-46992111D01*
X81485925Y-46921360D01*
X81546912Y-46851607D01*
X81604665Y-46784096D01*
X81604574Y-46784046D01*
X83262217Y-46784046D01*
X83319973Y-46851559D01*
X83380963Y-46921318D01*
X83445277Y-46992075D01*
X83513005Y-47062583D01*
X83548176Y-47097354D01*
X83584235Y-47131594D01*
X83621191Y-47165148D01*
X83659057Y-47197861D01*
X83697844Y-47229576D01*
X83737562Y-47260137D01*
X83778223Y-47289388D01*
X83819839Y-47317174D01*
X83847830Y-47334611D01*
X83875810Y-47350990D01*
X83903774Y-47366278D01*
X83931714Y-47380447D01*
X83959626Y-47393465D01*
X83987503Y-47405301D01*
X84015340Y-47415925D01*
X84043131Y-47425307D01*
X84070870Y-47433416D01*
X84098552Y-47440221D01*
X84126170Y-47445693D01*
X84153719Y-47449799D01*
X84181193Y-47452510D01*
X84208586Y-47453795D01*
X84235892Y-47453623D01*
X84263106Y-47451965D01*
X84290110Y-47448857D01*
X84317429Y-47444228D01*
X84345080Y-47437965D01*
X84373076Y-47429956D01*
X84401431Y-47420090D01*
X84430158Y-47408255D01*
X84459273Y-47394338D01*
X84488790Y-47378228D01*
X84518722Y-47359814D01*
X84549083Y-47338982D01*
X84579888Y-47315623D01*
X84611151Y-47289622D01*
X84642885Y-47260869D01*
X84675106Y-47229252D01*
X84707826Y-47194659D01*
X84741061Y-47156977D01*
X84760422Y-47126638D01*
X84777973Y-47097426D01*
X84793781Y-47069336D01*
X84807911Y-47042363D01*
X84820429Y-47016502D01*
X84831401Y-46991749D01*
X84840892Y-46968097D01*
X84848968Y-46945542D01*
X84855695Y-46924078D01*
X84861139Y-46903701D01*
X84865365Y-46884406D01*
X84868438Y-46866187D01*
X84870426Y-46849040D01*
X84871393Y-46832959D01*
X84871405Y-46817939D01*
X84870527Y-46803975D01*
X84868885Y-46790518D01*
X84866576Y-46777498D01*
X84863554Y-46764869D01*
X84859771Y-46752584D01*
X84855182Y-46740598D01*
X84849738Y-46728865D01*
X84843395Y-46717339D01*
X84836104Y-46705974D01*
X84827820Y-46694724D01*
X84818494Y-46683543D01*
X84808081Y-46672385D01*
X84796534Y-46661203D01*
X84783806Y-46649953D01*
X84769851Y-46638588D01*
X84754620Y-46627062D01*
X84738069Y-46615329D01*
X84703889Y-46593694D01*
X84665371Y-46572737D01*
X84622711Y-46552457D01*
X84576108Y-46532852D01*
X84525760Y-46513920D01*
X84471865Y-46495658D01*
X84354228Y-46461142D01*
X84224783Y-46429288D01*
X84085114Y-46400082D01*
X83936808Y-46373508D01*
X83781450Y-46349551D01*
X83752480Y-46386272D01*
X83722871Y-46421498D01*
X83692662Y-46455276D01*
X83661888Y-46487653D01*
X83630588Y-46518677D01*
X83598799Y-46548394D01*
X83566558Y-46576851D01*
X83533902Y-46604096D01*
X83500870Y-46630175D01*
X83467497Y-46655136D01*
X83433822Y-46679025D01*
X83399882Y-46701890D01*
X83365714Y-46723778D01*
X83331356Y-46744735D01*
X83296844Y-46764808D01*
X83262217Y-46784046D01*
X81604574Y-46784046D01*
X81570033Y-46764859D01*
X81535515Y-46744786D01*
X81501148Y-46723830D01*
X81466971Y-46701943D01*
X81433020Y-46679080D01*
X81399334Y-46655192D01*
X81365950Y-46630233D01*
X81332906Y-46604155D01*
X81300238Y-46576911D01*
X81267985Y-46548454D01*
X81236185Y-46518737D01*
X81204874Y-46487713D01*
X81174090Y-46455335D01*
X81143872Y-46421555D01*
X81114256Y-46386326D01*
X81085280Y-46349602D01*
X80929956Y-46373557D01*
X80781682Y-46400127D01*
X80710684Y-46414398D01*
X80642044Y-46429328D01*
X80575959Y-46444920D01*
X80512627Y-46461175D01*
X80452246Y-46478095D01*
X80395015Y-46495683D01*
X80341132Y-46513940D01*
X80290794Y-46532868D01*
X80244200Y-46552469D01*
X80201549Y-46572745D01*
X80163037Y-46593698D01*
X80128864Y-46615329D01*
X80112313Y-46627062D01*
X80097082Y-46638588D01*
X80083127Y-46649953D01*
X80070399Y-46661203D01*
X80058852Y-46672385D01*
X80048439Y-46683543D01*
X80039113Y-46694724D01*
X80030829Y-46705974D01*
X80023538Y-46717339D01*
X80017195Y-46728865D01*
X80011751Y-46740598D01*
X80007162Y-46752584D01*
X80003380Y-46764869D01*
X80000357Y-46777498D01*
X79998048Y-46790518D01*
X79996406Y-46803975D01*
X79995529Y-46817939D01*
X79658027Y-46817939D01*
X79658131Y-46805943D01*
X79660443Y-46771469D01*
X79662385Y-46754374D01*
X79664878Y-46737474D01*
X79667909Y-46720773D01*
X79671467Y-46704273D01*
X79675540Y-46687979D01*
X79680117Y-46671892D01*
X79685185Y-46656017D01*
X79690734Y-46640357D01*
X79703225Y-46609692D01*
X79717496Y-46579925D01*
X79733454Y-46551080D01*
X79751006Y-46523184D01*
X79770058Y-46496261D01*
X79790517Y-46470338D01*
X79812289Y-46445440D01*
X79835281Y-46421593D01*
X79859400Y-46398823D01*
X79884552Y-46377155D01*
X79910643Y-46356615D01*
X79937581Y-46337228D01*
X79984373Y-46306860D01*
X80033427Y-46278474D01*
X80084657Y-46251971D01*
X80137976Y-46227250D01*
X80183921Y-46208117D01*
X81408007Y-46208117D01*
X81436254Y-46239126D01*
X81465115Y-46268636D01*
X81494590Y-46296726D01*
X81524679Y-46323477D01*
X81555379Y-46348971D01*
X81586692Y-46373286D01*
X81618617Y-46396505D01*
X81651153Y-46418707D01*
X81684299Y-46439972D01*
X81718055Y-46460382D01*
X81752421Y-46480018D01*
X81787396Y-46498958D01*
X81859172Y-46535077D01*
X81933377Y-46569385D01*
X81993113Y-46585729D01*
X82053044Y-46600683D01*
X82113468Y-46614018D01*
X82174682Y-46625505D01*
X82236984Y-46634915D01*
X82300671Y-46642019D01*
X82333127Y-46644634D01*
X82366040Y-46646588D01*
X82399449Y-46647850D01*
X82433391Y-46648393D01*
X82467329Y-46647850D01*
X82500736Y-46646588D01*
X82533649Y-46644634D01*
X82566105Y-46642019D01*
X82598140Y-46638769D01*
X82629793Y-46634914D01*
X82692097Y-46625505D01*
X82753314Y-46614018D01*
X82813739Y-46600683D01*
X82873671Y-46585729D01*
X82933404Y-46569385D01*
X83007612Y-46535078D01*
X83043805Y-46517285D01*
X83079389Y-46498958D01*
X83114364Y-46480018D01*
X83148730Y-46460383D01*
X83182487Y-46439973D01*
X83215633Y-46418707D01*
X83248168Y-46396505D01*
X83280092Y-46373286D01*
X83311404Y-46348971D01*
X83342104Y-46323477D01*
X83372192Y-46296726D01*
X83401666Y-46268636D01*
X83430527Y-46239126D01*
X83458774Y-46208117D01*
X83400203Y-46169723D01*
X83341556Y-46132475D01*
X83282814Y-46096557D01*
X83223955Y-46062153D01*
X83164960Y-46029446D01*
X83105809Y-45998622D01*
X83046480Y-45969863D01*
X82986955Y-45943353D01*
X82963172Y-45966193D01*
X82938187Y-45988421D01*
X82911955Y-46009927D01*
X82884428Y-46030600D01*
X82855559Y-46050332D01*
X82825302Y-46069011D01*
X82793609Y-46086528D01*
X82760433Y-46102772D01*
X82725729Y-46117635D01*
X82689448Y-46131006D01*
X82651543Y-46142774D01*
X82611969Y-46152830D01*
X82570677Y-46161065D01*
X82527621Y-46167367D01*
X82482754Y-46171627D01*
X82436029Y-46173735D01*
X82434252Y-46173491D01*
X82432478Y-46173228D01*
X82431604Y-46173362D01*
X82430730Y-46173491D01*
X82429855Y-46173615D01*
X82428978Y-46173735D01*
X82381977Y-46171623D01*
X82336907Y-46167346D01*
X82293716Y-46161016D01*
X82252353Y-46152745D01*
X82212765Y-46142649D01*
X82174901Y-46130840D01*
X82138708Y-46117431D01*
X82104133Y-46102535D01*
X82071126Y-46086266D01*
X82039633Y-46068738D01*
X82009604Y-46050063D01*
X81980984Y-46030354D01*
X81953724Y-46009726D01*
X81927770Y-45988291D01*
X81903070Y-45966163D01*
X81879572Y-45943454D01*
X81820075Y-45969959D01*
X81760776Y-45998710D01*
X81701655Y-46029525D01*
X81642692Y-46062219D01*
X81583866Y-46096609D01*
X81525156Y-46132511D01*
X81466544Y-46169742D01*
X81408007Y-46208117D01*
X80183921Y-46208117D01*
X80193298Y-46204212D01*
X80250536Y-46182757D01*
X80309604Y-46162786D01*
X80370416Y-46144197D01*
X80432885Y-46126893D01*
X80496925Y-46110772D01*
X80629371Y-46081682D01*
X80767064Y-46056129D01*
X80909311Y-46033315D01*
X80889707Y-45975161D01*
X80873989Y-45917476D01*
X80862086Y-45860389D01*
X80853930Y-45804030D01*
X80849450Y-45748527D01*
X80848805Y-45708327D01*
X81175505Y-45708327D01*
X81176683Y-45740233D01*
X81180359Y-45773486D01*
X81186659Y-45808116D01*
X81195708Y-45844148D01*
X81207632Y-45881611D01*
X81222556Y-45920533D01*
X81299386Y-45870499D01*
X81371112Y-45825956D01*
X82322789Y-45825956D01*
X82347084Y-45829349D01*
X82359687Y-45830903D01*
X82372765Y-45832319D01*
X82386449Y-45833564D01*
X82400867Y-45834606D01*
X82416150Y-45835410D01*
X82432427Y-45835946D01*
X82448397Y-45835408D01*
X82463420Y-45834596D01*
X82477621Y-45833545D01*
X82491126Y-45832287D01*
X82504060Y-45830856D01*
X82516550Y-45829285D01*
X82540696Y-45825855D01*
X82540696Y-45825854D01*
X82512988Y-45821849D01*
X82485295Y-45817669D01*
X82471616Y-45815702D01*
X82458134Y-45813918D01*
X82444915Y-45812391D01*
X82432022Y-45811198D01*
X82419010Y-45812403D01*
X82405698Y-45813938D01*
X82392142Y-45815730D01*
X82378403Y-45817705D01*
X82350610Y-45821908D01*
X82322789Y-45825956D01*
X81371112Y-45825956D01*
X81377143Y-45822210D01*
X81455911Y-45775915D01*
X81535775Y-45731862D01*
X81616821Y-45690301D01*
X81699135Y-45651479D01*
X81782802Y-45615646D01*
X81825170Y-45598927D01*
X81867908Y-45583049D01*
X81896274Y-45573283D01*
X81925218Y-45564135D01*
X81954657Y-45555550D01*
X81984510Y-45547473D01*
X82014693Y-45539849D01*
X82045125Y-45532625D01*
X82106404Y-45519153D01*
X82106282Y-45519051D01*
X82758906Y-45519051D01*
X82820628Y-45532518D01*
X82851279Y-45539747D01*
X82881674Y-45547378D01*
X82911723Y-45555469D01*
X82941339Y-45564074D01*
X82970436Y-45573249D01*
X82998923Y-45583049D01*
X83041660Y-45598929D01*
X83084027Y-45615649D01*
X83126033Y-45633180D01*
X83167691Y-45651488D01*
X83250001Y-45690317D01*
X83331044Y-45731885D01*
X83410907Y-45775945D01*
X83489675Y-45822248D01*
X83567436Y-45870544D01*
X83644276Y-45920584D01*
X83650406Y-45905419D01*
X83656122Y-45890453D01*
X83661423Y-45875687D01*
X83666311Y-45861122D01*
X83670786Y-45846761D01*
X83674848Y-45832604D01*
X83678499Y-45818654D01*
X83681738Y-45804913D01*
X83684567Y-45791381D01*
X83686985Y-45778061D01*
X83688993Y-45764954D01*
X83690593Y-45752062D01*
X83691783Y-45739387D01*
X83692566Y-45726930D01*
X83692941Y-45714693D01*
X83692908Y-45702677D01*
X83692910Y-45702677D01*
X83692090Y-45683895D01*
X83690406Y-45665606D01*
X83687887Y-45647803D01*
X83684565Y-45630479D01*
X83680470Y-45613626D01*
X83675634Y-45597238D01*
X83670087Y-45581307D01*
X83663860Y-45565826D01*
X83656984Y-45550787D01*
X83649489Y-45536182D01*
X83641407Y-45522006D01*
X83632768Y-45508250D01*
X83623603Y-45494908D01*
X83613943Y-45481971D01*
X83603819Y-45469432D01*
X83593262Y-45457285D01*
X83570553Y-45434166D01*
X83545578Y-45412700D01*
X83518484Y-45393000D01*
X83489418Y-45375178D01*
X83458525Y-45359346D01*
X83425952Y-45345617D01*
X83391846Y-45334103D01*
X83356353Y-45324918D01*
X83319620Y-45318172D01*
X83281792Y-45313978D01*
X83243017Y-45312449D01*
X83203440Y-45313698D01*
X83163209Y-45317836D01*
X83122469Y-45324976D01*
X83081368Y-45335231D01*
X83040051Y-45348712D01*
X83023898Y-45354889D01*
X83007372Y-45361741D01*
X82990510Y-45369251D01*
X82973353Y-45377402D01*
X82955940Y-45386178D01*
X82938312Y-45395560D01*
X82920507Y-45405533D01*
X82902567Y-45416080D01*
X82884529Y-45427182D01*
X82866436Y-45438824D01*
X82848325Y-45450988D01*
X82830236Y-45463658D01*
X82812211Y-45476816D01*
X82794287Y-45490446D01*
X82776506Y-45504530D01*
X82758906Y-45519051D01*
X82106282Y-45519051D01*
X82088918Y-45504597D01*
X82071253Y-45490485D01*
X82053447Y-45476832D01*
X82035539Y-45463655D01*
X82017567Y-45450971D01*
X81999571Y-45438796D01*
X81981588Y-45427146D01*
X81963657Y-45416040D01*
X81945817Y-45405492D01*
X81928107Y-45395521D01*
X81910566Y-45386141D01*
X81893231Y-45377371D01*
X81876141Y-45369226D01*
X81859335Y-45361724D01*
X81842852Y-45354880D01*
X81826731Y-45348712D01*
X81806059Y-45341561D01*
X81785422Y-45335231D01*
X81764839Y-45329707D01*
X81744328Y-45324976D01*
X81723907Y-45321024D01*
X81703595Y-45317836D01*
X81683410Y-45315399D01*
X81663369Y-45313698D01*
X81643493Y-45312719D01*
X81623798Y-45312449D01*
X81604303Y-45312874D01*
X81585026Y-45313978D01*
X81565987Y-45315749D01*
X81547202Y-45318172D01*
X81528691Y-45321233D01*
X81510471Y-45324918D01*
X81474980Y-45334104D01*
X81440876Y-45345617D01*
X81408305Y-45359346D01*
X81377413Y-45375178D01*
X81348347Y-45393000D01*
X81334545Y-45402622D01*
X81321254Y-45412700D01*
X81308493Y-45423219D01*
X81296280Y-45434166D01*
X81284633Y-45445526D01*
X81273571Y-45457285D01*
X81256657Y-45477241D01*
X81240988Y-45498266D01*
X81226690Y-45520390D01*
X81213888Y-45543639D01*
X81202707Y-45568042D01*
X81193272Y-45593625D01*
X81185709Y-45620418D01*
X81180144Y-45648447D01*
X81176700Y-45677741D01*
X81175505Y-45708327D01*
X80848805Y-45708327D01*
X80848576Y-45694009D01*
X80851237Y-45640606D01*
X80857365Y-45588447D01*
X80866888Y-45537660D01*
X80879738Y-45488374D01*
X80895843Y-45440719D01*
X80915133Y-45394823D01*
X80937540Y-45350816D01*
X80962992Y-45308827D01*
X80991420Y-45268984D01*
X81022753Y-45231416D01*
X81059046Y-45193892D01*
X81097743Y-45159173D01*
X81138682Y-45127306D01*
X81148322Y-45120815D01*
X82130492Y-45120815D01*
X82150138Y-45132200D01*
X82169765Y-45144037D01*
X82189354Y-45156329D01*
X82208887Y-45169081D01*
X82228344Y-45182297D01*
X82247709Y-45195982D01*
X82266962Y-45210139D01*
X82286085Y-45224772D01*
X82305059Y-45239887D01*
X82323866Y-45255487D01*
X82342488Y-45271576D01*
X82360906Y-45288159D01*
X82379103Y-45305240D01*
X82397058Y-45322823D01*
X82414754Y-45340913D01*
X82432173Y-45359513D01*
X82449758Y-45340827D01*
X82467625Y-45322660D01*
X82485756Y-45305005D01*
X82504130Y-45287860D01*
X82522729Y-45271220D01*
X82541533Y-45255079D01*
X82560523Y-45239435D01*
X82579679Y-45224281D01*
X82598982Y-45209615D01*
X82618412Y-45195431D01*
X82637951Y-45181725D01*
X82657579Y-45168492D01*
X82697025Y-45143429D01*
X82736594Y-45120206D01*
X82727861Y-45111581D01*
X82719052Y-45103242D01*
X82710140Y-45095224D01*
X82701099Y-45087564D01*
X82696521Y-45083880D01*
X82691902Y-45080298D01*
X82687237Y-45076825D01*
X82682523Y-45073463D01*
X82677757Y-45070218D01*
X82672935Y-45067095D01*
X82668055Y-45064097D01*
X82663113Y-45061230D01*
X82651458Y-45054978D01*
X82639413Y-45049119D01*
X82626983Y-45043643D01*
X82614173Y-45038541D01*
X82600989Y-45033803D01*
X82587434Y-45029419D01*
X82573516Y-45025381D01*
X82559237Y-45021679D01*
X82544605Y-45018303D01*
X82529623Y-45015244D01*
X82514296Y-45012492D01*
X82498631Y-45010038D01*
X82466303Y-45005987D01*
X82432680Y-45003013D01*
X82399213Y-45006664D01*
X82382947Y-45008833D01*
X82367001Y-45011246D01*
X82351382Y-45013913D01*
X82336096Y-45016846D01*
X82321149Y-45020055D01*
X82306548Y-45023552D01*
X82292299Y-45027347D01*
X82278408Y-45031453D01*
X82264883Y-45035879D01*
X82251730Y-45040637D01*
X82238954Y-45045737D01*
X82226562Y-45051192D01*
X82214561Y-45057011D01*
X82202958Y-45063207D01*
X82198072Y-45066026D01*
X82193251Y-45068970D01*
X82188489Y-45072035D01*
X82183785Y-45075216D01*
X82179133Y-45078509D01*
X82174531Y-45081909D01*
X82169976Y-45085412D01*
X82165464Y-45089013D01*
X82156554Y-45096492D01*
X82147773Y-45104309D01*
X82139095Y-45112429D01*
X82130492Y-45120815D01*
X81148322Y-45120815D01*
X81181704Y-45098336D01*
X81226647Y-45072307D01*
X81273351Y-45049264D01*
X81321654Y-45029252D01*
X81371396Y-45012317D01*
X81422416Y-44998502D01*
X81474553Y-44987854D01*
X81527647Y-44980417D01*
X81581536Y-44976236D01*
X81636060Y-44975356D01*
X81691057Y-44977822D01*
X81746368Y-44983679D01*
X81801831Y-44992972D01*
X81814335Y-44974767D01*
X81827191Y-44957099D01*
X81840391Y-44939973D01*
X81853921Y-44923393D01*
X81867771Y-44907365D01*
X81881929Y-44891892D01*
X81896384Y-44876979D01*
X81911126Y-44862631D01*
X81926142Y-44848852D01*
X81941421Y-44835647D01*
X81956952Y-44823020D01*
X81972724Y-44810977D01*
X81988726Y-44799521D01*
X82004945Y-44788658D01*
X82021372Y-44778391D01*
X82037994Y-44768726D01*
X82061553Y-44756110D01*
X82085254Y-44744532D01*
X82109069Y-44733945D01*
X82132973Y-44724301D01*
X82156939Y-44715553D01*
X82180941Y-44707652D01*
X82204953Y-44700550D01*
X82228948Y-44694200D01*
X82252901Y-44688554D01*
X82276784Y-44683564D01*
X82300572Y-44679182D01*
X82324238Y-44675361D01*
X82371101Y-44669208D01*
X82417162Y-44664723D01*
X82420193Y-44665601D01*
X82423207Y-44666536D01*
X82426204Y-44667526D01*
X82429181Y-44668573D01*
X82432143Y-44667449D01*
X82435126Y-44666381D01*
X82438128Y-44665369D01*
X82441149Y-44664413D01*
X82488857Y-44668069D01*
G37*
G36*
X82445900Y-44958174D02*
G01*
X82455216Y-44958663D01*
X82464530Y-44959538D01*
X82473839Y-44960829D01*
X82490977Y-44962881D01*
X82508123Y-44965308D01*
X82525245Y-44968137D01*
X82542312Y-44971393D01*
X82559294Y-44975104D01*
X82576159Y-44979293D01*
X82592876Y-44983988D01*
X82609415Y-44989214D01*
X82625744Y-44994998D01*
X82641832Y-45001364D01*
X82657648Y-45008340D01*
X82673162Y-45015951D01*
X82688342Y-45024223D01*
X82703158Y-45033182D01*
X82717578Y-45042854D01*
X82731571Y-45053264D01*
X82750918Y-45070315D01*
X82760476Y-45079033D01*
X82769827Y-45087969D01*
X82774394Y-45092538D01*
X82778873Y-45097187D01*
X82783250Y-45101923D01*
X82787515Y-45106754D01*
X82791655Y-45111688D01*
X82795658Y-45116735D01*
X82799511Y-45121901D01*
X82803202Y-45127196D01*
X82803202Y-45127201D01*
X82803310Y-45127900D01*
X82803382Y-45128568D01*
X82803418Y-45129207D01*
X82803415Y-45129818D01*
X82803399Y-45130115D01*
X82803374Y-45130405D01*
X82803339Y-45130690D01*
X82803293Y-45130969D01*
X82803237Y-45131244D01*
X82803172Y-45131513D01*
X82803095Y-45131778D01*
X82803008Y-45132039D01*
X82802911Y-45132296D01*
X82802803Y-45132550D01*
X82802684Y-45132800D01*
X82802554Y-45133047D01*
X82802413Y-45133292D01*
X82802260Y-45133533D01*
X82802096Y-45133773D01*
X82801921Y-45134011D01*
X82801734Y-45134247D01*
X82801536Y-45134482D01*
X82801103Y-45134949D01*
X82800622Y-45135415D01*
X82800092Y-45135881D01*
X82777721Y-45147778D01*
X82755601Y-45160182D01*
X82733741Y-45173070D01*
X82712146Y-45186418D01*
X82690823Y-45200204D01*
X82669780Y-45214406D01*
X82649022Y-45229002D01*
X82628556Y-45243968D01*
X82616501Y-45252901D01*
X82604593Y-45262014D01*
X82581202Y-45280752D01*
X82558349Y-45300128D01*
X82536005Y-45320092D01*
X82514139Y-45340593D01*
X82492717Y-45361577D01*
X82471711Y-45382995D01*
X82451087Y-45404794D01*
X82450412Y-45405359D01*
X82449746Y-45405981D01*
X82449087Y-45406652D01*
X82448434Y-45407368D01*
X82447141Y-45408905D01*
X82445855Y-45410544D01*
X82443269Y-45413929D01*
X82441947Y-45415575D01*
X82440592Y-45417126D01*
X82439899Y-45417849D01*
X82439194Y-45418530D01*
X82438476Y-45419163D01*
X82437744Y-45419740D01*
X82436995Y-45420256D01*
X82436230Y-45420705D01*
X82435446Y-45421080D01*
X82434642Y-45421376D01*
X82433817Y-45421585D01*
X82432971Y-45421703D01*
X82432100Y-45421723D01*
X82431205Y-45421638D01*
X82430284Y-45421442D01*
X82429335Y-45421130D01*
X82428358Y-45420695D01*
X82427351Y-45420130D01*
X82408847Y-45399572D01*
X82389912Y-45379422D01*
X82370554Y-45359689D01*
X82350780Y-45340384D01*
X82330600Y-45321514D01*
X82310020Y-45303090D01*
X82289049Y-45285121D01*
X82267695Y-45267615D01*
X82245966Y-45250582D01*
X82223869Y-45234032D01*
X82201413Y-45217973D01*
X82178606Y-45202414D01*
X82155455Y-45187366D01*
X82131969Y-45172836D01*
X82108155Y-45158835D01*
X82084021Y-45145372D01*
X82083378Y-45144849D01*
X82082686Y-45144348D01*
X82081952Y-45143867D01*
X82081179Y-45143401D01*
X82079540Y-45142511D01*
X82077806Y-45141657D01*
X82074216Y-45139981D01*
X82072437Y-45139118D01*
X82070722Y-45138213D01*
X82069900Y-45137738D01*
X82069109Y-45137245D01*
X82068353Y-45136731D01*
X82067637Y-45136195D01*
X82066966Y-45135632D01*
X82066346Y-45135042D01*
X82065780Y-45134421D01*
X82065275Y-45133768D01*
X82064834Y-45133078D01*
X82064463Y-45132351D01*
X82064166Y-45131583D01*
X82063949Y-45130773D01*
X82063816Y-45129917D01*
X82063772Y-45129013D01*
X82063823Y-45128059D01*
X82063972Y-45127051D01*
X82065659Y-45124536D01*
X82067418Y-45122060D01*
X82069243Y-45119620D01*
X82071127Y-45117214D01*
X82073064Y-45114838D01*
X82075046Y-45112489D01*
X82079122Y-45107861D01*
X82083302Y-45103306D01*
X82087533Y-45098800D01*
X82095934Y-45089839D01*
X82107611Y-45078254D01*
X82119788Y-45067285D01*
X82132433Y-45056921D01*
X82145517Y-45047153D01*
X82159008Y-45037970D01*
X82172876Y-45029362D01*
X82187091Y-45021318D01*
X82201622Y-45013829D01*
X82216437Y-45006885D01*
X82231508Y-45000474D01*
X82246803Y-44994588D01*
X82262291Y-44989215D01*
X82277942Y-44984346D01*
X82293725Y-44979970D01*
X82309610Y-44976077D01*
X82325566Y-44972658D01*
X82362310Y-44965949D01*
X82380806Y-44962908D01*
X82399362Y-44960410D01*
X82408657Y-44959442D01*
X82417960Y-44958703D01*
X82427270Y-44958225D01*
X82436584Y-44958038D01*
X82445900Y-44958174D01*
G37*
D11*
%TO.C,C37*%
X59600000Y-79325000D03*
X59600000Y-77775000D03*
%TD*%
D12*
%TO.C,R25*%
X68583496Y-66788468D03*
X68583496Y-65768468D03*
%TD*%
D13*
%TO.C,Q2*%
X88458496Y-28723468D03*
D14*
X94758496Y-31003468D03*
D13*
X88458496Y-33283468D03*
%TD*%
D15*
%TO.C,L4*%
X55250000Y-84778468D03*
X57950000Y-84778468D03*
%TD*%
D16*
%TO.C,C12*%
X120833496Y-29028468D03*
X120833496Y-37028468D03*
%TD*%
D17*
%TO.C,R1*%
X68400000Y-35490000D03*
X68400000Y-36510000D03*
%TD*%
D13*
%TO.C,Q4*%
X88383496Y-53500968D03*
D14*
X94683496Y-55780968D03*
D13*
X88383496Y-58060968D03*
%TD*%
D18*
%TO.C,Q7*%
X69383496Y-44165968D03*
X71283496Y-44165968D03*
X70333496Y-41890968D03*
%TD*%
D19*
%TO.C,C32*%
X115533496Y-93778468D03*
X113633496Y-93778468D03*
%TD*%
D20*
%TO.C,SW1*%
X58283496Y-49778468D03*
D21*
X55743496Y-49778468D03*
X55743496Y-57398468D03*
X58283496Y-57398468D03*
%TD*%
D12*
%TO.C,FB4*%
X59700000Y-81810000D03*
X59700000Y-80790000D03*
%TD*%
D22*
%TO.C,R30*%
X68603496Y-45600000D03*
X67583496Y-45600000D03*
%TD*%
D23*
%TO.C,D5*%
X49015000Y-60528468D03*
X49985000Y-60528468D03*
%TD*%
D24*
%TO.C,D1*%
X126183496Y-24363468D03*
X125083496Y-24363468D03*
X125083496Y-26193468D03*
X126183496Y-26193468D03*
%TD*%
D25*
%TO.C,C33*%
X119833496Y-91478468D03*
X119833496Y-89578468D03*
%TD*%
D26*
%TO.C,D11*%
X60583496Y-70728468D03*
X60583496Y-72828468D03*
%TD*%
D27*
%TO.C,R8*%
X91573496Y-73028468D03*
X92593496Y-73028468D03*
%TD*%
D28*
%TO.C,C42*%
X51133496Y-87528468D03*
X53033496Y-87528468D03*
%TD*%
D29*
%TO.C,J4*%
X128793496Y-29428468D03*
D30*
X131333496Y-29428468D03*
X133873496Y-29428468D03*
X136413496Y-29428468D03*
X138953496Y-29428468D03*
%TD*%
D31*
%TO.C,D10*%
X61133496Y-46778468D03*
X59033496Y-46778468D03*
%TD*%
D23*
%TO.C,D9*%
X49015000Y-46028468D03*
X49985000Y-46028468D03*
%TD*%
D22*
%TO.C,R28*%
X68843496Y-56278468D03*
X67823496Y-56278468D03*
%TD*%
%TO.C,R14*%
X90083496Y-96778468D03*
X89063496Y-96778468D03*
%TD*%
D32*
%TO.C,L1*%
X104833496Y-28928468D03*
X104833496Y-40028468D03*
%TD*%
D33*
%TO.C,R16*%
X116583496Y-91203468D03*
X116583496Y-85278468D03*
%TD*%
D34*
%TO.C,U6*%
X50945996Y-83828468D03*
X50945996Y-84778468D03*
X50945996Y-85728468D03*
X53220996Y-85728468D03*
X53220996Y-84778468D03*
X53220996Y-83828468D03*
%TD*%
D17*
%TO.C,R34*%
X50600000Y-79518468D03*
X50600000Y-80538468D03*
%TD*%
D35*
%TO.C,C6*%
X99333496Y-43758468D03*
X99333496Y-42798468D03*
%TD*%
D22*
%TO.C,R31*%
X53603496Y-80528468D03*
X52583496Y-80528468D03*
%TD*%
%TO.C,R24*%
X62843496Y-63278468D03*
X61823496Y-63278468D03*
%TD*%
D18*
%TO.C,Q8*%
X55883496Y-79053468D03*
X57783496Y-79053468D03*
X56833496Y-76778468D03*
%TD*%
D17*
%TO.C,R15*%
X89083496Y-94518468D03*
X89083496Y-95538468D03*
%TD*%
D29*
%TO.C,J5*%
X138913496Y-33128468D03*
D30*
X136373496Y-33128468D03*
X133833496Y-33128468D03*
X131293496Y-33128468D03*
%TD*%
D27*
%TO.C,R21*%
X67823496Y-58528468D03*
X68843496Y-58528468D03*
%TD*%
D24*
%TO.C,D3*%
X85683496Y-92613468D03*
X84583496Y-92613468D03*
X84583496Y-94443468D03*
X85683496Y-94443468D03*
%TD*%
D17*
%TO.C,R13*%
X54083496Y-65518468D03*
X54083496Y-66538468D03*
%TD*%
%TO.C,R18*%
X89083496Y-92518468D03*
X89083496Y-93538468D03*
%TD*%
D36*
%TO.C,Q3*%
X96783496Y-65305968D03*
D37*
X90483496Y-63025968D03*
D36*
X96783496Y-60745968D03*
%TD*%
D23*
%TO.C,D6*%
X49015000Y-56815968D03*
X49985000Y-56815968D03*
%TD*%
D22*
%TO.C,R20*%
X68843496Y-57528468D03*
X67823496Y-57528468D03*
%TD*%
D38*
%TO.C,C37*%
X55583496Y-67548468D03*
X55583496Y-68508468D03*
%TD*%
D17*
%TO.C,R4*%
X88833496Y-44768468D03*
X88833496Y-45788468D03*
%TD*%
D39*
%TO.C,U4*%
X57183496Y-65123468D03*
X57183496Y-66393468D03*
X57183496Y-67663468D03*
X57183496Y-68933468D03*
X64483496Y-68933468D03*
X64483496Y-67663468D03*
X64483496Y-66393468D03*
X64483496Y-65123468D03*
%TD*%
D19*
%TO.C,C26*%
X100783496Y-96778468D03*
X98883496Y-96778468D03*
%TD*%
D36*
%TO.C,Q5*%
X96783496Y-90305968D03*
D37*
X90483496Y-88025968D03*
D36*
X96783496Y-85745968D03*
%TD*%
D28*
%TO.C,C39*%
X59850000Y-85300000D03*
X61750000Y-85300000D03*
%TD*%
D40*
%TO.C,C36*%
X114583496Y-78778468D03*
X122583496Y-78778468D03*
%TD*%
D17*
%TO.C,R7*%
X88833496Y-42778468D03*
X88833496Y-43798468D03*
%TD*%
D23*
%TO.C,D8*%
X49030000Y-49740968D03*
X50000000Y-49740968D03*
%TD*%
D25*
%TO.C,C18*%
X119833496Y-66478468D03*
X119833496Y-64578468D03*
%TD*%
%TO.C,C9*%
X120833496Y-42978468D03*
X120833496Y-41078468D03*
%TD*%
D35*
%TO.C,C30*%
X99833496Y-94028468D03*
X99833496Y-93068468D03*
%TD*%
D19*
%TO.C,C7*%
X114083496Y-39528468D03*
X112183496Y-39528468D03*
%TD*%
D12*
%TO.C,FB5*%
X58700000Y-81810000D03*
X58700000Y-80790000D03*
%TD*%
D25*
%TO.C,C35*%
X123833496Y-91478468D03*
X123833496Y-89578468D03*
%TD*%
D41*
%TO.C,C41*%
X52583496Y-82528468D03*
X53543496Y-82528468D03*
%TD*%
D24*
%TO.C,D4*%
X109418496Y-93728468D03*
X109418496Y-94828468D03*
X111248496Y-94828468D03*
X111248496Y-93728468D03*
%TD*%
D42*
%TO.C,H2*%
X145083496Y-94528468D03*
%TD*%
D17*
%TO.C,R27*%
X52333496Y-52268468D03*
X52333496Y-53288468D03*
%TD*%
D33*
%TO.C,R5*%
X113333496Y-35703468D03*
X113333496Y-29778468D03*
%TD*%
D36*
%TO.C,Q1*%
X96883496Y-40558468D03*
D37*
X90583496Y-38278468D03*
D36*
X96883496Y-35998468D03*
%TD*%
D24*
%TO.C,D2*%
X85683496Y-24278468D03*
X84583496Y-24278468D03*
X84583496Y-26108468D03*
X85683496Y-26108468D03*
%TD*%
D42*
%TO.C,H4*%
X51083496Y-26528468D03*
%TD*%
D43*
%TO.C,L3*%
X111133496Y-83778468D03*
X100033496Y-83778468D03*
%TD*%
D19*
%TO.C,C31*%
X115533496Y-95778468D03*
X113633496Y-95778468D03*
%TD*%
D43*
%TO.C,L2*%
X111183496Y-59028468D03*
X100083496Y-59028468D03*
%TD*%
D35*
%TO.C,C38*%
X66833496Y-66488468D03*
X66833496Y-65528468D03*
%TD*%
D22*
%TO.C,R29*%
X63343496Y-46778468D03*
X62323496Y-46778468D03*
%TD*%
D17*
%TO.C,R9*%
X89083496Y-69518468D03*
X89083496Y-70538468D03*
%TD*%
D19*
%TO.C,C11*%
X114033496Y-41528468D03*
X112133496Y-41528468D03*
%TD*%
D17*
%TO.C,R6*%
X98333496Y-42768468D03*
X98333496Y-43788468D03*
%TD*%
D44*
%TO.C,C24*%
X64608496Y-63200000D03*
X66158496Y-63200000D03*
%TD*%
D12*
%TO.C,R33*%
X50600000Y-78548468D03*
X50600000Y-77528468D03*
%TD*%
D19*
%TO.C,C22*%
X115533496Y-68778468D03*
X113633496Y-68778468D03*
%TD*%
D18*
%TO.C,Q9*%
X52383496Y-79053468D03*
X54283496Y-79053468D03*
X53333496Y-76778468D03*
%TD*%
D45*
%TO.C,C2*%
X100083496Y-45078468D03*
X100083496Y-46978468D03*
%TD*%
D46*
%TO.C,U2*%
X96658496Y-46778468D03*
X96658496Y-45778468D03*
X96658496Y-44778468D03*
X96658496Y-43778468D03*
X96658496Y-42778468D03*
X91333496Y-42778468D03*
X91333496Y-43778468D03*
X91333496Y-44778468D03*
X91333496Y-45778468D03*
X91333496Y-46778468D03*
%TD*%
D13*
%TO.C,Q6*%
X88358496Y-78523468D03*
D14*
X94658496Y-80803468D03*
D13*
X88358496Y-83083468D03*
%TD*%
D46*
%TO.C,U3*%
X96745996Y-71778468D03*
X96745996Y-70778468D03*
X96745996Y-69778468D03*
X96745996Y-68778468D03*
X96745996Y-67778468D03*
X91420996Y-67778468D03*
X91420996Y-68778468D03*
X91420996Y-69778468D03*
X91420996Y-70778468D03*
X91420996Y-71778468D03*
%TD*%
D33*
%TO.C,R10*%
X116583496Y-66453468D03*
X116583496Y-60528468D03*
%TD*%
D47*
%TO.C,J6*%
X64333496Y-74340000D03*
D30*
X64333496Y-71800000D03*
X66873496Y-74340000D03*
X66873496Y-71800000D03*
X69413496Y-74340000D03*
X69413496Y-71800000D03*
%TD*%
D22*
%TO.C,R3*%
X89603496Y-47028468D03*
X88583496Y-47028468D03*
%TD*%
D19*
%TO.C,C21*%
X115533496Y-70778468D03*
X113633496Y-70778468D03*
%TD*%
D26*
%TO.C,D12*%
X68716504Y-37621532D03*
X68716504Y-39721532D03*
%TD*%
D44*
%TO.C,C1*%
X60825000Y-34500000D03*
X62375000Y-34500000D03*
%TD*%
D27*
%TO.C,R26*%
X54573496Y-63278468D03*
X55593496Y-63278468D03*
%TD*%
D45*
%TO.C,C13*%
X100083496Y-70578468D03*
X100083496Y-72478468D03*
%TD*%
D23*
%TO.C,D7*%
X49015000Y-53278468D03*
X49985000Y-53278468D03*
%TD*%
D42*
%TO.C,H1*%
X51083496Y-94528468D03*
%TD*%
D25*
%TO.C,C16*%
X86000000Y-65728468D03*
X86000000Y-63828468D03*
%TD*%
D17*
%TO.C,R12*%
X89083496Y-67528468D03*
X89083496Y-68548468D03*
%TD*%
D48*
%TO.C,C14*%
X79583496Y-63278468D03*
X79583496Y-55278468D03*
%TD*%
D49*
%TO.C,J2*%
X146583496Y-33028468D03*
X146583496Y-38028468D03*
X146583496Y-43028468D03*
X146583496Y-48028468D03*
X146583496Y-53028468D03*
X146583496Y-58028468D03*
X146583496Y-63028468D03*
X146583496Y-68028468D03*
X146583496Y-73028468D03*
X146583496Y-78028468D03*
X146583496Y-83028468D03*
X146583496Y-88028468D03*
%TD*%
D25*
%TO.C,C34*%
X121833496Y-91478468D03*
X121833496Y-89578468D03*
%TD*%
D17*
%TO.C,R17*%
X98833496Y-93018468D03*
X98833496Y-94038468D03*
%TD*%
D25*
%TO.C,C20*%
X123833496Y-66478468D03*
X123833496Y-64578468D03*
%TD*%
%TO.C,C4*%
X86083496Y-40978468D03*
X86083496Y-39078468D03*
%TD*%
D45*
%TO.C,C5*%
X86083496Y-33328468D03*
X86083496Y-35228468D03*
%TD*%
D28*
%TO.C,C40*%
X59850000Y-83300000D03*
X61750000Y-83300000D03*
%TD*%
D50*
%TO.C,U1*%
X61701591Y-38028468D03*
D51*
X59039091Y-36028468D03*
X59039091Y-37028468D03*
X59039091Y-38028468D03*
X59039091Y-39028468D03*
X59039091Y-40028468D03*
X64364091Y-40028468D03*
X64364091Y-39028468D03*
X64364091Y-38028468D03*
X64364091Y-37028468D03*
X64364091Y-36028468D03*
%TD*%
D19*
%TO.C,C10*%
X114033496Y-43528468D03*
X112133496Y-43528468D03*
%TD*%
D17*
%TO.C,R11*%
X98583496Y-68018468D03*
X98583496Y-69038468D03*
%TD*%
D27*
%TO.C,R24*%
X61823496Y-60528468D03*
X62843496Y-60528468D03*
%TD*%
D48*
%TO.C,C27*%
X79583496Y-88528468D03*
X79583496Y-80528468D03*
%TD*%
D25*
%TO.C,C28*%
X86000000Y-90728468D03*
X86000000Y-88828468D03*
%TD*%
D45*
%TO.C,C29*%
X86000000Y-83078468D03*
X86000000Y-84978468D03*
%TD*%
%TO.C,C15*%
X86000000Y-57828468D03*
X86000000Y-59728468D03*
%TD*%
D17*
%TO.C,R22*%
X59083496Y-71018468D03*
X59083496Y-72038468D03*
%TD*%
D52*
%TO.C,J1*%
X53438496Y-35138468D03*
X53438496Y-40918468D03*
D53*
X54513496Y-34828468D03*
X54513496Y-35628468D03*
D54*
X54513496Y-36778468D03*
X54513496Y-37778468D03*
X54513496Y-38278468D03*
X54513496Y-39278468D03*
D53*
X54513496Y-40428468D03*
X54513496Y-41228468D03*
X54513496Y-41228468D03*
X54513496Y-40428468D03*
D54*
X54513496Y-39778468D03*
X54513496Y-38778468D03*
X54513496Y-37278468D03*
X54513496Y-36278468D03*
D53*
X54513496Y-35628468D03*
X54513496Y-34828468D03*
D55*
X53938496Y-33708468D03*
D56*
X49758496Y-33708468D03*
D55*
X53938496Y-42348468D03*
D56*
X49758496Y-42348468D03*
%TD*%
D28*
%TO.C,C8*%
X117133496Y-40528468D03*
X119033496Y-40528468D03*
%TD*%
D12*
%TO.C,R19*%
X57333496Y-37288468D03*
X57333496Y-36268468D03*
%TD*%
D48*
%TO.C,C3*%
X79583496Y-38528468D03*
X79583496Y-30528468D03*
%TD*%
D27*
%TO.C,R32*%
X54573496Y-80528468D03*
X55593496Y-80528468D03*
%TD*%
D57*
%TO.C,FB1*%
X122333496Y-94028468D03*
X130833496Y-94028468D03*
%TD*%
D35*
%TO.C,C17*%
X99583496Y-69008468D03*
X99583496Y-68048468D03*
%TD*%
D46*
%TO.C,U5*%
X96908496Y-96528468D03*
X96908496Y-95528468D03*
X96908496Y-94528468D03*
X96908496Y-93528468D03*
X96908496Y-92528468D03*
X91583496Y-92528468D03*
X91583496Y-93528468D03*
X91583496Y-94528468D03*
X91583496Y-95528468D03*
X91583496Y-96528468D03*
%TD*%
D57*
%TO.C,FB2*%
X124083496Y-69528468D03*
X132583496Y-69528468D03*
%TD*%
%TO.C,FB3*%
X120333496Y-45028468D03*
X128833496Y-45028468D03*
%TD*%
D17*
%TO.C,R2*%
X69433496Y-35490000D03*
X69433496Y-36510000D03*
%TD*%
D35*
%TO.C,C25*%
X55083496Y-66508468D03*
X55083496Y-65548468D03*
%TD*%
D40*
%TO.C,C23*%
X114583496Y-54028468D03*
X122583496Y-54028468D03*
%TD*%
D25*
%TO.C,C19*%
X121833496Y-66478468D03*
X121833496Y-64578468D03*
%TD*%
D49*
%TO.C,J3*%
X143083496Y-88028468D03*
X143083496Y-83028468D03*
X143083496Y-78028468D03*
X143083496Y-73028468D03*
X143083496Y-68028468D03*
X143083496Y-63028468D03*
X143083496Y-58028468D03*
X143083496Y-53028468D03*
X143083496Y-48028468D03*
X143083496Y-43028468D03*
X143083496Y-38028468D03*
X143083496Y-33028468D03*
%TD*%
M02*
