M48
; DRILL file {KiCad 8.0.5-8.0.5-0~ubuntu24.04.1} date 2024-10-13T20:58:17+0200
; FORMAT={-:-/ absolute / inch / decimal}
; #@! TF.CreationDate,2024-10-13T20:58:17+02:00
; #@! TF.GenerationSoftware,Kicad,Pcbnew,8.0.5-8.0.5-0~ubuntu24.04.1
; #@! TF.FileFunction,Plated,1,2,PTH
FMAT,2
INCH
; #@! TA.AperFunction,Plated,PTH,ViaDrill
T1C0.0118
; #@! TA.AperFunction,Plated,PTH,ComponentDrill
T2C0.0236
; #@! TA.AperFunction,Plated,PTH,ComponentDrill
T3C0.0315
; #@! TA.AperFunction,Plated,PTH,ComponentDrill
T4C0.0394
; #@! TA.AperFunction,Plated,PTH,ComponentDrill
T5C0.0512
; #@! TA.AperFunction,Plated,PTH,ComponentDrill
T6C0.1260
%
G90
G05
T1
X1.9127Y-2.5208
X1.9679Y-1.8515
X1.9679Y-2.1369
X1.9685Y-1.9992
X1.9685Y-2.2747
X1.9685Y-2.4224
X2.0276Y-3.131
X2.0505Y-3.2795
X2.0505Y-3.3968
X2.0505Y-3.319
X2.0509Y-3.3572
X2.0604Y-2.1369
X2.0702Y-1.3594
X2.0702Y-1.635
X2.0702Y-1.8614
X2.084Y-2.5956
X2.084Y-2.635
X2.0997Y-1.4283
X2.0997Y-1.5759
X2.149Y-2.5405
X2.1883Y-2.4519
X2.1982Y-1.3948
X2.1982Y-1.6271
X2.2112Y-1.511
X2.2179Y-1.7728
X2.2466Y-1.511
X2.269Y-1.5759
X2.2769Y-3.0621
X2.2808Y-1.4972
X2.3163Y-2.7078
X2.3694Y-2.4421
X2.3823Y-3.1807
X2.3852Y-2.7275
X2.4292Y-1.4972
X2.4442Y-2.3436
X2.4596Y-2.4421
X2.4724Y-3.3189
X2.4738Y-2.6094
X2.4882Y-1.3622
X2.5289Y-2.3082
X2.575Y-1.5348
X2.6608Y-2.4716
X2.689Y-1.5354
X2.7346Y-1.8072
X2.8084Y-1.694
X2.8084Y-1.7925
X2.8084Y-2.3436
X2.8773Y-2.2747
X2.9462Y-2.2058
X3.0053Y-1.694
X3.0053Y-1.7925
X3.0053Y-2.1468
X3.0466Y-2.1804
X3.0525Y-1.2058
X3.0525Y-3.1665
X3.21Y-1.2058
X3.21Y-3.1665
X3.2139Y-2.1804
X3.3832Y-1.6547
X3.3832Y-2.6351
X3.3871Y-3.6074
X3.4147Y-3.7177
X3.4186Y-3.6429
X3.4383Y-1.2629
X3.4383Y-3.2236
X3.4403Y-2.2374
X3.4698Y-2.7926
X3.4718Y-1.6547
X3.4777Y-1.2629
X3.4777Y-3.2236
X3.4797Y-2.2374
X3.4875Y-1.4283
X3.4875Y-1.4775
X3.4875Y-1.5267
X3.4875Y-1.5759
X3.4994Y-2.4047
X3.4994Y-2.4539
X3.4994Y-2.5031
X3.4994Y-2.5523
X3.5033Y-3.3889
X3.5033Y-3.4381
X3.5033Y-3.4873
X3.5033Y-3.5366
X3.5171Y-1.2629
X3.5171Y-3.2236
X3.519Y-2.2374
X3.5368Y-1.4283
X3.5368Y-1.4775
X3.5368Y-1.5267
X3.5368Y-1.5759
X3.5407Y-1.8047
X3.5407Y-2.6351
X3.5446Y-1.7618
X3.5446Y-2.7453
X3.5466Y-1.3023
X3.5466Y-1.3417
X3.5466Y-3.2629
X3.5466Y-3.3023
X3.5473Y-3.6192
X3.5486Y-2.2768
X3.5486Y-2.3162
X3.5486Y-2.4047
X3.5486Y-2.4539
X3.5486Y-2.5031
X3.5486Y-2.5523
X3.5512Y-3.6999
X3.5525Y-3.3889
X3.5525Y-3.4381
X3.5525Y-3.4873
X3.5525Y-3.5366
X3.5525Y-3.7692
X3.586Y-1.4283
X3.586Y-1.4775
X3.586Y-1.5267
X3.586Y-1.5759
X3.5978Y-2.4047
X3.5978Y-2.4539
X3.5978Y-2.5031
X3.5978Y-2.5523
X3.6017Y-3.3889
X3.6017Y-3.4381
X3.6017Y-3.4873
X3.6017Y-3.5366
X3.6352Y-1.4283
X3.6352Y-1.4775
X3.6352Y-1.5267
X3.6352Y-1.5759
X3.6431Y-1.1468
X3.6431Y-1.196
X3.6431Y-1.2452
X3.6431Y-1.2944
X3.645Y-2.1291
X3.645Y-2.1783
X3.645Y-2.2275
X3.645Y-2.2767
X3.645Y-3.1055
X3.645Y-3.1547
X3.645Y-3.2039
X3.645Y-3.2531
X3.647Y-2.4047
X3.647Y-2.4539
X3.647Y-2.5031
X3.647Y-2.5523
X3.6509Y-3.3889
X3.6509Y-3.4381
X3.6509Y-3.4873
X3.6509Y-3.5366
X3.6824Y-2.8752
X3.6923Y-1.1468
X3.6923Y-1.196
X3.6923Y-1.2452
X3.6923Y-1.2944
X3.6942Y-2.1291
X3.6942Y-2.1783
X3.6942Y-2.2275
X3.6942Y-2.2767
X3.6942Y-3.1055
X3.6942Y-3.1547
X3.6942Y-3.2039
X3.6942Y-3.2531
X3.7415Y-1.1468
X3.7415Y-1.196
X3.7415Y-1.2452
X3.7415Y-1.2944
X3.7434Y-2.1291
X3.7434Y-2.1783
X3.7434Y-2.2275
X3.7434Y-2.2767
X3.7434Y-3.1055
X3.7434Y-3.1547
X3.7434Y-3.2039
X3.7434Y-3.2531
X3.7907Y-1.1468
X3.7907Y-1.196
X3.7907Y-1.2452
X3.7907Y-1.2944
X3.7927Y-2.1291
X3.7927Y-2.1783
X3.7927Y-2.2275
X3.7927Y-2.2767
X3.7927Y-3.1055
X3.7927Y-3.1547
X3.7927Y-3.2039
X3.7927Y-3.2531
X3.832Y-1.635
X3.8635Y-2.6281
X3.8753Y-2.7768
X3.8858Y-1.7874
X3.9548Y-3.6232
X3.9567Y-3.7334
X4.0249Y-3.8397
X4.0407Y-1.2855
X4.1391Y-3.7413
X4.2356Y-1.9007
X4.2503Y-3.6773
X4.273Y-3.5346
X4.2749Y-2.5503
X4.3143Y-1.8968
X4.3635Y-1.5602
X4.3675Y-1.6389
X4.3675Y-1.7177
X4.3931Y-1.8968
X4.4226Y-2.7137
X4.4265Y-1.4775
X4.4324Y-3.6921
X4.4344Y-3.7806
X4.5997Y-2.7964
X4.6194Y-3.7511
X4.7191Y-3.4854
X4.7277Y-1.3555
X4.7592Y-2.4381
X4.7592Y-2.4854
X4.7651Y-2.8751
X4.7651Y-2.9224
X4.7749Y-1.3555
X4.788Y-3.4854
X4.8104Y-2.4381
X4.8104Y-2.4854
X4.8163Y-2.8751
X4.8163Y-2.9224
X4.8261Y-1.4145
X4.8261Y-1.4618
X4.8274Y-3.446
X4.8458Y-1.5956
X4.8668Y-3.4854
X4.895Y-2.0287
X4.895Y-2.2255
X4.9049Y-2.1271
X4.9147Y-3.0228
X4.9147Y-3.1803
X4.9344Y-1.7925
X4.9541Y-3.0228
X4.9541Y-3.1803
X5.1411Y-3.1704
X5.1411Y-3.2295
X5.1509Y-3.318
X5.1805Y-3.1999
X5.1805Y-3.259
X5.2651Y-1.8358
X5.2651Y-1.8751
X5.2986Y-2.7177
X5.2986Y-2.757
X5.3379Y-2.7177
X5.3379Y-2.757
X5.3596Y-1.8358
X5.3596Y-1.8751
X5.4441Y-2.029
X5.4856Y-2.029
X5.9088Y-2.6586
T3
X2.1946Y-1.9598
X2.1946Y-2.2598
X2.2946Y-1.9598
X2.2946Y-2.2598
T4
X2.5328Y-2.8268
X2.5328Y-2.9268
X2.6328Y-2.8268
X2.6328Y-2.9268
X2.7328Y-2.8268
X2.7328Y-2.9268
X5.0706Y-1.1586
X5.169Y-1.3043
X5.1706Y-1.1586
X5.269Y-1.3043
X5.2706Y-1.1586
X5.369Y-1.3043
X5.3706Y-1.1586
X5.469Y-1.3043
X5.4706Y-1.1586
T5
X5.6332Y-1.3003
X5.6332Y-1.4972
X5.6332Y-1.694
X5.6332Y-1.8909
X5.6332Y-2.0877
X5.6332Y-2.2846
X5.6332Y-2.4814
X5.6332Y-2.6783
X5.6332Y-2.8751
X5.6332Y-3.072
X5.6332Y-3.2688
X5.6332Y-3.4657
X5.771Y-1.3003
X5.771Y-1.4972
X5.771Y-1.694
X5.771Y-1.8909
X5.771Y-2.0877
X5.771Y-2.2846
X5.771Y-2.4814
X5.771Y-2.6783
X5.771Y-2.8751
X5.771Y-3.072
X5.771Y-3.2688
X5.771Y-3.4657
T6
X2.0112Y-1.0444
X2.0112Y-3.7216
X5.7119Y-3.7216
T2
G00X1.9747Y-1.3271
M15
G01X1.9432Y-1.3271
M16
G05
G00X1.9747Y-1.6673
M15
G01X1.9432Y-1.6673
M16
G05
G00X2.1452Y-1.3271
M15
G01X2.1019Y-1.3271
M16
G05
G00X2.1452Y-1.6673
M15
G01X2.1019Y-1.6673
M16
G05
M30
