%TF.GenerationSoftware,KiCad,Pcbnew,8.0.5-8.0.5-0~ubuntu24.04.1*%
%TF.CreationDate,2024-10-13T20:58:17+02:00*%
%TF.ProjectId,PD_PSU,50445f50-5355-42e6-9b69-6361645f7063,rev?*%
%TF.SameCoordinates,Original*%
%TF.FileFunction,Drillmap*%
%TF.FilePolarity,Positive*%
%FSLAX45Y45*%
G04 Gerber Fmt 4.5, Leading zero omitted, Abs format (unit mm)*
G04 Created by KiCad (PCBNEW 8.0.5-8.0.5-0~ubuntu24.04.1) date 2024-10-13 20:58:17*
%MOMM*%
%LPD*%
G01*
G04 APERTURE LIST*
%ADD10C,0.050000*%
%ADD11C,0.200000*%
%ADD12C,0.100000*%
G04 APERTURE END LIST*
D10*
X4708350Y-2252847D02*
X15208350Y-2252847D01*
X15208350Y-9852847D01*
X4708350Y-9852847D01*
X4708350Y-2252847D01*
D11*
D12*
X5311350Y-3481347D02*
X5376350Y-3546347D01*
X5376350Y-3481347D02*
X5311350Y-3546347D01*
X5311350Y-4059347D02*
X5376350Y-4124347D01*
X5376350Y-4059347D02*
X5311350Y-4124347D01*
D11*
X4966626Y-10166831D02*
X4966626Y-9966831D01*
X4966626Y-9966831D02*
X5014245Y-9966831D01*
X5014245Y-9966831D02*
X5042817Y-9976354D01*
X5042817Y-9976354D02*
X5061865Y-9995402D01*
X5061865Y-9995402D02*
X5071388Y-10014450D01*
X5071388Y-10014450D02*
X5080912Y-10052545D01*
X5080912Y-10052545D02*
X5080912Y-10081116D01*
X5080912Y-10081116D02*
X5071388Y-10119212D01*
X5071388Y-10119212D02*
X5061865Y-10138259D01*
X5061865Y-10138259D02*
X5042817Y-10157307D01*
X5042817Y-10157307D02*
X5014245Y-10166831D01*
X5014245Y-10166831D02*
X4966626Y-10166831D01*
X5166626Y-10166831D02*
X5166626Y-10033497D01*
X5166626Y-10071593D02*
X5176150Y-10052545D01*
X5176150Y-10052545D02*
X5185674Y-10043021D01*
X5185674Y-10043021D02*
X5204722Y-10033497D01*
X5204722Y-10033497D02*
X5223769Y-10033497D01*
X5290436Y-10166831D02*
X5290436Y-10033497D01*
X5290436Y-9966831D02*
X5280912Y-9976354D01*
X5280912Y-9976354D02*
X5290436Y-9985878D01*
X5290436Y-9985878D02*
X5299960Y-9976354D01*
X5299960Y-9976354D02*
X5290436Y-9966831D01*
X5290436Y-9966831D02*
X5290436Y-9985878D01*
X5414245Y-10166831D02*
X5395198Y-10157307D01*
X5395198Y-10157307D02*
X5385674Y-10138259D01*
X5385674Y-10138259D02*
X5385674Y-9966831D01*
X5519007Y-10166831D02*
X5499960Y-10157307D01*
X5499960Y-10157307D02*
X5490436Y-10138259D01*
X5490436Y-10138259D02*
X5490436Y-9966831D01*
X5747579Y-10166831D02*
X5747579Y-9966831D01*
X5747579Y-9966831D02*
X5814245Y-10109688D01*
X5814245Y-10109688D02*
X5880912Y-9966831D01*
X5880912Y-9966831D02*
X5880912Y-10166831D01*
X6061864Y-10166831D02*
X6061864Y-10062069D01*
X6061864Y-10062069D02*
X6052341Y-10043021D01*
X6052341Y-10043021D02*
X6033293Y-10033497D01*
X6033293Y-10033497D02*
X5995198Y-10033497D01*
X5995198Y-10033497D02*
X5976150Y-10043021D01*
X6061864Y-10157307D02*
X6042817Y-10166831D01*
X6042817Y-10166831D02*
X5995198Y-10166831D01*
X5995198Y-10166831D02*
X5976150Y-10157307D01*
X5976150Y-10157307D02*
X5966626Y-10138259D01*
X5966626Y-10138259D02*
X5966626Y-10119212D01*
X5966626Y-10119212D02*
X5976150Y-10100164D01*
X5976150Y-10100164D02*
X5995198Y-10090640D01*
X5995198Y-10090640D02*
X6042817Y-10090640D01*
X6042817Y-10090640D02*
X6061864Y-10081116D01*
X6157103Y-10033497D02*
X6157103Y-10233497D01*
X6157103Y-10043021D02*
X6176150Y-10033497D01*
X6176150Y-10033497D02*
X6214245Y-10033497D01*
X6214245Y-10033497D02*
X6233293Y-10043021D01*
X6233293Y-10043021D02*
X6242817Y-10052545D01*
X6242817Y-10052545D02*
X6252341Y-10071593D01*
X6252341Y-10071593D02*
X6252341Y-10128735D01*
X6252341Y-10128735D02*
X6242817Y-10147783D01*
X6242817Y-10147783D02*
X6233293Y-10157307D01*
X6233293Y-10157307D02*
X6214245Y-10166831D01*
X6214245Y-10166831D02*
X6176150Y-10166831D01*
X6176150Y-10166831D02*
X6157103Y-10157307D01*
X6338055Y-10147783D02*
X6347579Y-10157307D01*
X6347579Y-10157307D02*
X6338055Y-10166831D01*
X6338055Y-10166831D02*
X6328531Y-10157307D01*
X6328531Y-10157307D02*
X6338055Y-10147783D01*
X6338055Y-10147783D02*
X6338055Y-10166831D01*
X6338055Y-10043021D02*
X6347579Y-10052545D01*
X6347579Y-10052545D02*
X6338055Y-10062069D01*
X6338055Y-10062069D02*
X6328531Y-10052545D01*
X6328531Y-10052545D02*
X6338055Y-10043021D01*
X6338055Y-10043021D02*
X6338055Y-10062069D01*
D12*
X4640850Y-10462847D02*
X4705850Y-10527847D01*
X4705850Y-10462847D02*
X4640850Y-10527847D01*
D11*
X5004722Y-10386831D02*
X5023769Y-10386831D01*
X5023769Y-10386831D02*
X5042817Y-10396354D01*
X5042817Y-10396354D02*
X5052341Y-10405878D01*
X5052341Y-10405878D02*
X5061865Y-10424926D01*
X5061865Y-10424926D02*
X5071388Y-10463021D01*
X5071388Y-10463021D02*
X5071388Y-10510640D01*
X5071388Y-10510640D02*
X5061865Y-10548735D01*
X5061865Y-10548735D02*
X5052341Y-10567783D01*
X5052341Y-10567783D02*
X5042817Y-10577307D01*
X5042817Y-10577307D02*
X5023769Y-10586831D01*
X5023769Y-10586831D02*
X5004722Y-10586831D01*
X5004722Y-10586831D02*
X4985674Y-10577307D01*
X4985674Y-10577307D02*
X4976150Y-10567783D01*
X4976150Y-10567783D02*
X4966626Y-10548735D01*
X4966626Y-10548735D02*
X4957103Y-10510640D01*
X4957103Y-10510640D02*
X4957103Y-10463021D01*
X4957103Y-10463021D02*
X4966626Y-10424926D01*
X4966626Y-10424926D02*
X4976150Y-10405878D01*
X4976150Y-10405878D02*
X4985674Y-10396354D01*
X4985674Y-10396354D02*
X5004722Y-10386831D01*
X5157103Y-10567783D02*
X5166626Y-10577307D01*
X5166626Y-10577307D02*
X5157103Y-10586831D01*
X5157103Y-10586831D02*
X5147579Y-10577307D01*
X5147579Y-10577307D02*
X5157103Y-10567783D01*
X5157103Y-10567783D02*
X5157103Y-10586831D01*
X5338055Y-10386831D02*
X5299960Y-10386831D01*
X5299960Y-10386831D02*
X5280912Y-10396354D01*
X5280912Y-10396354D02*
X5271388Y-10405878D01*
X5271388Y-10405878D02*
X5252341Y-10434450D01*
X5252341Y-10434450D02*
X5242817Y-10472545D01*
X5242817Y-10472545D02*
X5242817Y-10548735D01*
X5242817Y-10548735D02*
X5252341Y-10567783D01*
X5252341Y-10567783D02*
X5261865Y-10577307D01*
X5261865Y-10577307D02*
X5280912Y-10586831D01*
X5280912Y-10586831D02*
X5319007Y-10586831D01*
X5319007Y-10586831D02*
X5338055Y-10577307D01*
X5338055Y-10577307D02*
X5347579Y-10567783D01*
X5347579Y-10567783D02*
X5357103Y-10548735D01*
X5357103Y-10548735D02*
X5357103Y-10501116D01*
X5357103Y-10501116D02*
X5347579Y-10482069D01*
X5347579Y-10482069D02*
X5338055Y-10472545D01*
X5338055Y-10472545D02*
X5319007Y-10463021D01*
X5319007Y-10463021D02*
X5280912Y-10463021D01*
X5280912Y-10463021D02*
X5261865Y-10472545D01*
X5261865Y-10472545D02*
X5252341Y-10482069D01*
X5252341Y-10482069D02*
X5242817Y-10501116D01*
X5538055Y-10386831D02*
X5442817Y-10386831D01*
X5442817Y-10386831D02*
X5433293Y-10482069D01*
X5433293Y-10482069D02*
X5442817Y-10472545D01*
X5442817Y-10472545D02*
X5461865Y-10463021D01*
X5461865Y-10463021D02*
X5509484Y-10463021D01*
X5509484Y-10463021D02*
X5528531Y-10472545D01*
X5528531Y-10472545D02*
X5538055Y-10482069D01*
X5538055Y-10482069D02*
X5547579Y-10501116D01*
X5547579Y-10501116D02*
X5547579Y-10548735D01*
X5547579Y-10548735D02*
X5538055Y-10567783D01*
X5538055Y-10567783D02*
X5528531Y-10577307D01*
X5528531Y-10577307D02*
X5509484Y-10586831D01*
X5509484Y-10586831D02*
X5461865Y-10586831D01*
X5461865Y-10586831D02*
X5442817Y-10577307D01*
X5442817Y-10577307D02*
X5433293Y-10567783D01*
X5671388Y-10386831D02*
X5690436Y-10386831D01*
X5690436Y-10386831D02*
X5709484Y-10396354D01*
X5709484Y-10396354D02*
X5719007Y-10405878D01*
X5719007Y-10405878D02*
X5728531Y-10424926D01*
X5728531Y-10424926D02*
X5738055Y-10463021D01*
X5738055Y-10463021D02*
X5738055Y-10510640D01*
X5738055Y-10510640D02*
X5728531Y-10548735D01*
X5728531Y-10548735D02*
X5719007Y-10567783D01*
X5719007Y-10567783D02*
X5709484Y-10577307D01*
X5709484Y-10577307D02*
X5690436Y-10586831D01*
X5690436Y-10586831D02*
X5671388Y-10586831D01*
X5671388Y-10586831D02*
X5652341Y-10577307D01*
X5652341Y-10577307D02*
X5642817Y-10567783D01*
X5642817Y-10567783D02*
X5633293Y-10548735D01*
X5633293Y-10548735D02*
X5623769Y-10510640D01*
X5623769Y-10510640D02*
X5623769Y-10463021D01*
X5623769Y-10463021D02*
X5633293Y-10424926D01*
X5633293Y-10424926D02*
X5642817Y-10405878D01*
X5642817Y-10405878D02*
X5652341Y-10396354D01*
X5652341Y-10396354D02*
X5671388Y-10386831D01*
X5823769Y-10586831D02*
X5823769Y-10453497D01*
X5823769Y-10472545D02*
X5833293Y-10463021D01*
X5833293Y-10463021D02*
X5852341Y-10453497D01*
X5852341Y-10453497D02*
X5880912Y-10453497D01*
X5880912Y-10453497D02*
X5899960Y-10463021D01*
X5899960Y-10463021D02*
X5909484Y-10482069D01*
X5909484Y-10482069D02*
X5909484Y-10586831D01*
X5909484Y-10482069D02*
X5919007Y-10463021D01*
X5919007Y-10463021D02*
X5938055Y-10453497D01*
X5938055Y-10453497D02*
X5966626Y-10453497D01*
X5966626Y-10453497D02*
X5985674Y-10463021D01*
X5985674Y-10463021D02*
X5995198Y-10482069D01*
X5995198Y-10482069D02*
X5995198Y-10586831D01*
X6090436Y-10586831D02*
X6090436Y-10453497D01*
X6090436Y-10472545D02*
X6099960Y-10463021D01*
X6099960Y-10463021D02*
X6119007Y-10453497D01*
X6119007Y-10453497D02*
X6147579Y-10453497D01*
X6147579Y-10453497D02*
X6166626Y-10463021D01*
X6166626Y-10463021D02*
X6176150Y-10482069D01*
X6176150Y-10482069D02*
X6176150Y-10586831D01*
X6176150Y-10482069D02*
X6185674Y-10463021D01*
X6185674Y-10463021D02*
X6204722Y-10453497D01*
X6204722Y-10453497D02*
X6233293Y-10453497D01*
X6233293Y-10453497D02*
X6252341Y-10463021D01*
X6252341Y-10463021D02*
X6261865Y-10482069D01*
X6261865Y-10482069D02*
X6261865Y-10586831D01*
X6652341Y-10377307D02*
X6480912Y-10634450D01*
X6909484Y-10386831D02*
X6928531Y-10386831D01*
X6928531Y-10386831D02*
X6947579Y-10396354D01*
X6947579Y-10396354D02*
X6957103Y-10405878D01*
X6957103Y-10405878D02*
X6966627Y-10424926D01*
X6966627Y-10424926D02*
X6976150Y-10463021D01*
X6976150Y-10463021D02*
X6976150Y-10510640D01*
X6976150Y-10510640D02*
X6966627Y-10548735D01*
X6966627Y-10548735D02*
X6957103Y-10567783D01*
X6957103Y-10567783D02*
X6947579Y-10577307D01*
X6947579Y-10577307D02*
X6928531Y-10586831D01*
X6928531Y-10586831D02*
X6909484Y-10586831D01*
X6909484Y-10586831D02*
X6890436Y-10577307D01*
X6890436Y-10577307D02*
X6880912Y-10567783D01*
X6880912Y-10567783D02*
X6871388Y-10548735D01*
X6871388Y-10548735D02*
X6861865Y-10510640D01*
X6861865Y-10510640D02*
X6861865Y-10463021D01*
X6861865Y-10463021D02*
X6871388Y-10424926D01*
X6871388Y-10424926D02*
X6880912Y-10405878D01*
X6880912Y-10405878D02*
X6890436Y-10396354D01*
X6890436Y-10396354D02*
X6909484Y-10386831D01*
X7061865Y-10567783D02*
X7071388Y-10577307D01*
X7071388Y-10577307D02*
X7061865Y-10586831D01*
X7061865Y-10586831D02*
X7052341Y-10577307D01*
X7052341Y-10577307D02*
X7061865Y-10567783D01*
X7061865Y-10567783D02*
X7061865Y-10586831D01*
X7195198Y-10386831D02*
X7214246Y-10386831D01*
X7214246Y-10386831D02*
X7233293Y-10396354D01*
X7233293Y-10396354D02*
X7242817Y-10405878D01*
X7242817Y-10405878D02*
X7252341Y-10424926D01*
X7252341Y-10424926D02*
X7261865Y-10463021D01*
X7261865Y-10463021D02*
X7261865Y-10510640D01*
X7261865Y-10510640D02*
X7252341Y-10548735D01*
X7252341Y-10548735D02*
X7242817Y-10567783D01*
X7242817Y-10567783D02*
X7233293Y-10577307D01*
X7233293Y-10577307D02*
X7214246Y-10586831D01*
X7214246Y-10586831D02*
X7195198Y-10586831D01*
X7195198Y-10586831D02*
X7176150Y-10577307D01*
X7176150Y-10577307D02*
X7166627Y-10567783D01*
X7166627Y-10567783D02*
X7157103Y-10548735D01*
X7157103Y-10548735D02*
X7147579Y-10510640D01*
X7147579Y-10510640D02*
X7147579Y-10463021D01*
X7147579Y-10463021D02*
X7157103Y-10424926D01*
X7157103Y-10424926D02*
X7166627Y-10405878D01*
X7166627Y-10405878D02*
X7176150Y-10396354D01*
X7176150Y-10396354D02*
X7195198Y-10386831D01*
X7338055Y-10405878D02*
X7347579Y-10396354D01*
X7347579Y-10396354D02*
X7366627Y-10386831D01*
X7366627Y-10386831D02*
X7414246Y-10386831D01*
X7414246Y-10386831D02*
X7433293Y-10396354D01*
X7433293Y-10396354D02*
X7442817Y-10405878D01*
X7442817Y-10405878D02*
X7452341Y-10424926D01*
X7452341Y-10424926D02*
X7452341Y-10443973D01*
X7452341Y-10443973D02*
X7442817Y-10472545D01*
X7442817Y-10472545D02*
X7328531Y-10586831D01*
X7328531Y-10586831D02*
X7452341Y-10586831D01*
X7633293Y-10386831D02*
X7538055Y-10386831D01*
X7538055Y-10386831D02*
X7528531Y-10482069D01*
X7528531Y-10482069D02*
X7538055Y-10472545D01*
X7538055Y-10472545D02*
X7557103Y-10463021D01*
X7557103Y-10463021D02*
X7604722Y-10463021D01*
X7604722Y-10463021D02*
X7623769Y-10472545D01*
X7623769Y-10472545D02*
X7633293Y-10482069D01*
X7633293Y-10482069D02*
X7642817Y-10501116D01*
X7642817Y-10501116D02*
X7642817Y-10548735D01*
X7642817Y-10548735D02*
X7633293Y-10567783D01*
X7633293Y-10567783D02*
X7623769Y-10577307D01*
X7623769Y-10577307D02*
X7604722Y-10586831D01*
X7604722Y-10586831D02*
X7557103Y-10586831D01*
X7557103Y-10586831D02*
X7538055Y-10577307D01*
X7538055Y-10577307D02*
X7528531Y-10567783D01*
X7814246Y-10386831D02*
X7776150Y-10386831D01*
X7776150Y-10386831D02*
X7757103Y-10396354D01*
X7757103Y-10396354D02*
X7747579Y-10405878D01*
X7747579Y-10405878D02*
X7728531Y-10434450D01*
X7728531Y-10434450D02*
X7719008Y-10472545D01*
X7719008Y-10472545D02*
X7719008Y-10548735D01*
X7719008Y-10548735D02*
X7728531Y-10567783D01*
X7728531Y-10567783D02*
X7738055Y-10577307D01*
X7738055Y-10577307D02*
X7757103Y-10586831D01*
X7757103Y-10586831D02*
X7795198Y-10586831D01*
X7795198Y-10586831D02*
X7814246Y-10577307D01*
X7814246Y-10577307D02*
X7823769Y-10567783D01*
X7823769Y-10567783D02*
X7833293Y-10548735D01*
X7833293Y-10548735D02*
X7833293Y-10501116D01*
X7833293Y-10501116D02*
X7823769Y-10482069D01*
X7823769Y-10482069D02*
X7814246Y-10472545D01*
X7814246Y-10472545D02*
X7795198Y-10463021D01*
X7795198Y-10463021D02*
X7757103Y-10463021D01*
X7757103Y-10463021D02*
X7738055Y-10472545D01*
X7738055Y-10472545D02*
X7728531Y-10482069D01*
X7728531Y-10482069D02*
X7719008Y-10501116D01*
X7909484Y-10386831D02*
X7909484Y-10424926D01*
X7985674Y-10386831D02*
X7985674Y-10424926D01*
X8280912Y-10663021D02*
X8271389Y-10653497D01*
X8271389Y-10653497D02*
X8252341Y-10624926D01*
X8252341Y-10624926D02*
X8242817Y-10605878D01*
X8242817Y-10605878D02*
X8233293Y-10577307D01*
X8233293Y-10577307D02*
X8223770Y-10529688D01*
X8223770Y-10529688D02*
X8223770Y-10491593D01*
X8223770Y-10491593D02*
X8233293Y-10443973D01*
X8233293Y-10443973D02*
X8242817Y-10415402D01*
X8242817Y-10415402D02*
X8252341Y-10396354D01*
X8252341Y-10396354D02*
X8271389Y-10367783D01*
X8271389Y-10367783D02*
X8280912Y-10358259D01*
X8347579Y-10405878D02*
X8357103Y-10396354D01*
X8357103Y-10396354D02*
X8376150Y-10386831D01*
X8376150Y-10386831D02*
X8423770Y-10386831D01*
X8423770Y-10386831D02*
X8442817Y-10396354D01*
X8442817Y-10396354D02*
X8452341Y-10405878D01*
X8452341Y-10405878D02*
X8461865Y-10424926D01*
X8461865Y-10424926D02*
X8461865Y-10443973D01*
X8461865Y-10443973D02*
X8452341Y-10472545D01*
X8452341Y-10472545D02*
X8338055Y-10586831D01*
X8338055Y-10586831D02*
X8461865Y-10586831D01*
X8699960Y-10586831D02*
X8699960Y-10386831D01*
X8785674Y-10586831D02*
X8785674Y-10482069D01*
X8785674Y-10482069D02*
X8776151Y-10463021D01*
X8776151Y-10463021D02*
X8757103Y-10453497D01*
X8757103Y-10453497D02*
X8728532Y-10453497D01*
X8728532Y-10453497D02*
X8709484Y-10463021D01*
X8709484Y-10463021D02*
X8699960Y-10472545D01*
X8909484Y-10586831D02*
X8890436Y-10577307D01*
X8890436Y-10577307D02*
X8880913Y-10567783D01*
X8880913Y-10567783D02*
X8871389Y-10548735D01*
X8871389Y-10548735D02*
X8871389Y-10491593D01*
X8871389Y-10491593D02*
X8880913Y-10472545D01*
X8880913Y-10472545D02*
X8890436Y-10463021D01*
X8890436Y-10463021D02*
X8909484Y-10453497D01*
X8909484Y-10453497D02*
X8938055Y-10453497D01*
X8938055Y-10453497D02*
X8957103Y-10463021D01*
X8957103Y-10463021D02*
X8966627Y-10472545D01*
X8966627Y-10472545D02*
X8976151Y-10491593D01*
X8976151Y-10491593D02*
X8976151Y-10548735D01*
X8976151Y-10548735D02*
X8966627Y-10567783D01*
X8966627Y-10567783D02*
X8957103Y-10577307D01*
X8957103Y-10577307D02*
X8938055Y-10586831D01*
X8938055Y-10586831D02*
X8909484Y-10586831D01*
X9090436Y-10586831D02*
X9071389Y-10577307D01*
X9071389Y-10577307D02*
X9061865Y-10558259D01*
X9061865Y-10558259D02*
X9061865Y-10386831D01*
X9242817Y-10577307D02*
X9223770Y-10586831D01*
X9223770Y-10586831D02*
X9185674Y-10586831D01*
X9185674Y-10586831D02*
X9166627Y-10577307D01*
X9166627Y-10577307D02*
X9157103Y-10558259D01*
X9157103Y-10558259D02*
X9157103Y-10482069D01*
X9157103Y-10482069D02*
X9166627Y-10463021D01*
X9166627Y-10463021D02*
X9185674Y-10453497D01*
X9185674Y-10453497D02*
X9223770Y-10453497D01*
X9223770Y-10453497D02*
X9242817Y-10463021D01*
X9242817Y-10463021D02*
X9252341Y-10482069D01*
X9252341Y-10482069D02*
X9252341Y-10501116D01*
X9252341Y-10501116D02*
X9157103Y-10520164D01*
X9328532Y-10577307D02*
X9347579Y-10586831D01*
X9347579Y-10586831D02*
X9385674Y-10586831D01*
X9385674Y-10586831D02*
X9404722Y-10577307D01*
X9404722Y-10577307D02*
X9414246Y-10558259D01*
X9414246Y-10558259D02*
X9414246Y-10548735D01*
X9414246Y-10548735D02*
X9404722Y-10529688D01*
X9404722Y-10529688D02*
X9385674Y-10520164D01*
X9385674Y-10520164D02*
X9357103Y-10520164D01*
X9357103Y-10520164D02*
X9338055Y-10510640D01*
X9338055Y-10510640D02*
X9328532Y-10491593D01*
X9328532Y-10491593D02*
X9328532Y-10482069D01*
X9328532Y-10482069D02*
X9338055Y-10463021D01*
X9338055Y-10463021D02*
X9357103Y-10453497D01*
X9357103Y-10453497D02*
X9385674Y-10453497D01*
X9385674Y-10453497D02*
X9404722Y-10463021D01*
X9480913Y-10663021D02*
X9490436Y-10653497D01*
X9490436Y-10653497D02*
X9509484Y-10624926D01*
X9509484Y-10624926D02*
X9519008Y-10605878D01*
X9519008Y-10605878D02*
X9528532Y-10577307D01*
X9528532Y-10577307D02*
X9538055Y-10529688D01*
X9538055Y-10529688D02*
X9538055Y-10491593D01*
X9538055Y-10491593D02*
X9528532Y-10443973D01*
X9528532Y-10443973D02*
X9519008Y-10415402D01*
X9519008Y-10415402D02*
X9509484Y-10396354D01*
X9509484Y-10396354D02*
X9490436Y-10367783D01*
X9490436Y-10367783D02*
X9480913Y-10358259D01*
X9842817Y-10663021D02*
X9833294Y-10653497D01*
X9833294Y-10653497D02*
X9814246Y-10624926D01*
X9814246Y-10624926D02*
X9804722Y-10605878D01*
X9804722Y-10605878D02*
X9795198Y-10577307D01*
X9795198Y-10577307D02*
X9785675Y-10529688D01*
X9785675Y-10529688D02*
X9785675Y-10491593D01*
X9785675Y-10491593D02*
X9795198Y-10443973D01*
X9795198Y-10443973D02*
X9804722Y-10415402D01*
X9804722Y-10415402D02*
X9814246Y-10396354D01*
X9814246Y-10396354D02*
X9833294Y-10367783D01*
X9833294Y-10367783D02*
X9842817Y-10358259D01*
X9919008Y-10453497D02*
X9919008Y-10586831D01*
X9919008Y-10472545D02*
X9928532Y-10463021D01*
X9928532Y-10463021D02*
X9947579Y-10453497D01*
X9947579Y-10453497D02*
X9976151Y-10453497D01*
X9976151Y-10453497D02*
X9995198Y-10463021D01*
X9995198Y-10463021D02*
X10004722Y-10482069D01*
X10004722Y-10482069D02*
X10004722Y-10586831D01*
X10128532Y-10586831D02*
X10109484Y-10577307D01*
X10109484Y-10577307D02*
X10099960Y-10567783D01*
X10099960Y-10567783D02*
X10090436Y-10548735D01*
X10090436Y-10548735D02*
X10090436Y-10491593D01*
X10090436Y-10491593D02*
X10099960Y-10472545D01*
X10099960Y-10472545D02*
X10109484Y-10463021D01*
X10109484Y-10463021D02*
X10128532Y-10453497D01*
X10128532Y-10453497D02*
X10157103Y-10453497D01*
X10157103Y-10453497D02*
X10176151Y-10463021D01*
X10176151Y-10463021D02*
X10185675Y-10472545D01*
X10185675Y-10472545D02*
X10195198Y-10491593D01*
X10195198Y-10491593D02*
X10195198Y-10548735D01*
X10195198Y-10548735D02*
X10185675Y-10567783D01*
X10185675Y-10567783D02*
X10176151Y-10577307D01*
X10176151Y-10577307D02*
X10157103Y-10586831D01*
X10157103Y-10586831D02*
X10128532Y-10586831D01*
X10252341Y-10453497D02*
X10328532Y-10453497D01*
X10280913Y-10386831D02*
X10280913Y-10558259D01*
X10280913Y-10558259D02*
X10290436Y-10577307D01*
X10290436Y-10577307D02*
X10309484Y-10586831D01*
X10309484Y-10586831D02*
X10328532Y-10586831D01*
X10547579Y-10453497D02*
X10547579Y-10653497D01*
X10547579Y-10463021D02*
X10566627Y-10453497D01*
X10566627Y-10453497D02*
X10604722Y-10453497D01*
X10604722Y-10453497D02*
X10623770Y-10463021D01*
X10623770Y-10463021D02*
X10633294Y-10472545D01*
X10633294Y-10472545D02*
X10642817Y-10491593D01*
X10642817Y-10491593D02*
X10642817Y-10548735D01*
X10642817Y-10548735D02*
X10633294Y-10567783D01*
X10633294Y-10567783D02*
X10623770Y-10577307D01*
X10623770Y-10577307D02*
X10604722Y-10586831D01*
X10604722Y-10586831D02*
X10566627Y-10586831D01*
X10566627Y-10586831D02*
X10547579Y-10577307D01*
X10757103Y-10586831D02*
X10738056Y-10577307D01*
X10738056Y-10577307D02*
X10728532Y-10558259D01*
X10728532Y-10558259D02*
X10728532Y-10386831D01*
X10919008Y-10586831D02*
X10919008Y-10482069D01*
X10919008Y-10482069D02*
X10909484Y-10463021D01*
X10909484Y-10463021D02*
X10890437Y-10453497D01*
X10890437Y-10453497D02*
X10852341Y-10453497D01*
X10852341Y-10453497D02*
X10833294Y-10463021D01*
X10919008Y-10577307D02*
X10899960Y-10586831D01*
X10899960Y-10586831D02*
X10852341Y-10586831D01*
X10852341Y-10586831D02*
X10833294Y-10577307D01*
X10833294Y-10577307D02*
X10823770Y-10558259D01*
X10823770Y-10558259D02*
X10823770Y-10539212D01*
X10823770Y-10539212D02*
X10833294Y-10520164D01*
X10833294Y-10520164D02*
X10852341Y-10510640D01*
X10852341Y-10510640D02*
X10899960Y-10510640D01*
X10899960Y-10510640D02*
X10919008Y-10501116D01*
X10985675Y-10453497D02*
X11061865Y-10453497D01*
X11014246Y-10386831D02*
X11014246Y-10558259D01*
X11014246Y-10558259D02*
X11023770Y-10577307D01*
X11023770Y-10577307D02*
X11042817Y-10586831D01*
X11042817Y-10586831D02*
X11061865Y-10586831D01*
X11204722Y-10577307D02*
X11185675Y-10586831D01*
X11185675Y-10586831D02*
X11147579Y-10586831D01*
X11147579Y-10586831D02*
X11128532Y-10577307D01*
X11128532Y-10577307D02*
X11119008Y-10558259D01*
X11119008Y-10558259D02*
X11119008Y-10482069D01*
X11119008Y-10482069D02*
X11128532Y-10463021D01*
X11128532Y-10463021D02*
X11147579Y-10453497D01*
X11147579Y-10453497D02*
X11185675Y-10453497D01*
X11185675Y-10453497D02*
X11204722Y-10463021D01*
X11204722Y-10463021D02*
X11214246Y-10482069D01*
X11214246Y-10482069D02*
X11214246Y-10501116D01*
X11214246Y-10501116D02*
X11119008Y-10520164D01*
X11385675Y-10586831D02*
X11385675Y-10386831D01*
X11385675Y-10577307D02*
X11366627Y-10586831D01*
X11366627Y-10586831D02*
X11328532Y-10586831D01*
X11328532Y-10586831D02*
X11309484Y-10577307D01*
X11309484Y-10577307D02*
X11299960Y-10567783D01*
X11299960Y-10567783D02*
X11290436Y-10548735D01*
X11290436Y-10548735D02*
X11290436Y-10491593D01*
X11290436Y-10491593D02*
X11299960Y-10472545D01*
X11299960Y-10472545D02*
X11309484Y-10463021D01*
X11309484Y-10463021D02*
X11328532Y-10453497D01*
X11328532Y-10453497D02*
X11366627Y-10453497D01*
X11366627Y-10453497D02*
X11385675Y-10463021D01*
X11461865Y-10663021D02*
X11471389Y-10653497D01*
X11471389Y-10653497D02*
X11490436Y-10624926D01*
X11490436Y-10624926D02*
X11499960Y-10605878D01*
X11499960Y-10605878D02*
X11509484Y-10577307D01*
X11509484Y-10577307D02*
X11519008Y-10529688D01*
X11519008Y-10529688D02*
X11519008Y-10491593D01*
X11519008Y-10491593D02*
X11509484Y-10443973D01*
X11509484Y-10443973D02*
X11499960Y-10415402D01*
X11499960Y-10415402D02*
X11490436Y-10396354D01*
X11490436Y-10396354D02*
X11471389Y-10367783D01*
X11471389Y-10367783D02*
X11461865Y-10358259D01*
M02*
